<svg width="22.962891" height="22.915771" viewBox="0 0 22.9629 22.9158" fill="none" xmlns="http://www.w3.org/2000/svg" xmlns:xlink="http://www.w3.org/1999/xlink">
	<desc>
			Created with Pixso.
	</desc>
	<defs/>
	<path d="M17.6763 14.9399C16.4497 14.322 16.3486 14.2715 15.3848 14.9878C14.7412 15.4658 14.314 15.8928 13.561 15.7324C12.8086 15.5718 11.1729 14.6667 9.74072 13.2393C8.30859 11.8118 7.35107 10.1287 7.18994 9.37866C7.02881 8.62866 7.46289 8.20605 7.93652 7.56152C8.604 6.65283 8.55322 6.50146 7.98291 5.27466C7.53809 4.3208 6.3252 2.39746 5.51416 1.59985C4.64697 0.743408 4.64697 0.894775 4.08838 1.12695C3.6333 1.31836 3.19678 1.55103 2.78418 1.82202C1.97656 2.35864 1.52832 2.80444 1.21484 3.47412C0.901367 4.14404 0.760254 5.71436 2.37939 8.65527C3.99854 11.5962 5.13428 13.0999 7.48535 15.4441C9.83594 17.7883 11.644 19.0488 14.2866 20.531C17.5557 22.3618 18.8096 22.0049 19.4814 21.6919C20.1538 21.3789 20.6016 20.9348 21.1392 20.1272C21.4106 19.7153 21.644 19.2793 21.8354 18.8247C22.0684 18.2681 22.2197 18.2681 21.3618 17.4011C20.5601 16.5935 18.6187 15.4148 17.6763 14.9399Z" stroke="#CDA274" stroke-opacity="1.000000" stroke-width="2.000000"/>
</svg>
