<svg width="93.000000" height="93.000000" viewBox="0 0 93 93" fill="none" xmlns="http://www.w3.org/2000/svg" xmlns:xlink="http://www.w3.org/1999/xlink">
	<desc>
			Created with Pixso.
	</desc>
	<defs/>
	<circle id="Ellipse" cx="46.500000" cy="46.500000" r="46.500000" fill="#F4F0EC" fill-opacity="1.000000"/>
	<path id="Call" d="M55.3857 51.3242C53.5166 50.3828 53.3623 50.3059 51.8936 51.3975C50.9131 52.1257 50.2617 52.7766 49.1152 52.532C47.9678 52.2874 45.4756 50.9082 43.293 48.7329C41.1104 46.5576 39.6514 43.9932 39.4062 42.8501C39.1611 41.707 39.8223 41.0632 40.5439 40.0811C41.5605 38.6965 41.4834 38.4656 40.6143 36.5964C39.9365 35.1428 38.0879 32.2122 36.8525 30.9968C35.5312 29.6914 35.5312 29.9221 34.6797 30.2761C33.9863 30.5676 33.3213 30.9221 32.6924 31.3352C31.4619 32.1528 30.7793 32.832 30.3008 33.8528C29.8232 34.8735 29.6094 37.2666 32.0762 41.7478C34.543 46.2292 36.2734 48.5205 39.8564 52.0928C43.4385 55.665 46.1934 57.5857 50.2197 59.844C55.2021 62.6338 57.1123 62.0901 58.1367 61.613C59.1602 61.1362 59.8428 60.4592 60.6621 59.2285C61.0762 58.6011 61.4316 57.9368 61.7236 57.2441C62.0781 56.3958 62.3086 56.3958 61.001 55.075C59.7793 53.8442 56.8213 52.0481 55.3857 51.3242Z" stroke="#CDA274" stroke-opacity="1.000000" stroke-width="2.000000"/>
</svg>
