<svg width="15.750000" height="15.714844" viewBox="0 0 15.75 15.7148" fill="none" xmlns="http://www.w3.org/2000/svg" xmlns:xlink="http://www.w3.org/1999/xlink">
	<desc>
			Created with Pixso.
	</desc>
	<defs/>
	<path id="" d="M3.51562 15.7148L3.51562 5.20312L0.246094 5.20312L0.246094 15.7148L3.51562 15.7148ZM1.86328 3.79688C2.91797 3.79688 3.76172 2.91797 3.76172 1.86328C3.76172 0.84375 2.91797 0 1.86328 0C0.84375 0 0 0.84375 0 1.86328C0 2.91797 0.84375 3.79688 1.86328 3.79688ZM15.7148 15.7148L15.75 15.7148L15.75 9.94922C15.75 7.13672 15.1172 4.95703 11.8125 4.95703C10.2305 4.95703 9.17578 5.83594 8.71875 6.64453L8.68359 6.64453L8.68359 5.20312L5.55469 5.20312L5.55469 15.7148L8.82422 15.7148L8.82422 10.5117C8.82422 9.14062 9.07031 7.83984 10.7578 7.83984C12.4453 7.83984 12.4805 9.38672 12.4805 10.6172L12.4805 15.7148L15.7148 15.7148Z" fill="#292F36" fill-opacity="1.000000" fill-rule="evenodd"/>
</svg>
