<svg width="130.311523" height="27.000000" viewBox="0 0 130.312 27" fill="none" xmlns="http://www.w3.org/2000/svg" xmlns:xlink="http://www.w3.org/1999/xlink">
	<desc>
			Created with Pixso.
	</desc>
	<defs/>
	<path id="Interno" d="M0.000117242 26.3999L0.000117242 25.9999L0.800117 25.6799C1.33345 25.4932 1.68012 25.2399 1.84012 24.9199C2.02678 24.5999 2.12012 24.1732 2.12012 23.6399L2.12012 2.75988C2.12012 2.22655 2.04012 1.79988 1.88012 1.47988C1.72012 1.15988 1.36012 0.906548 0.800117 0.719883L0.000117242 0.399881L0.000117242 -0.000118256L10.2801 -0.000118256L10.2801 0.399881L9.48012 0.719883C8.94678 0.906548 8.58678 1.15988 8.40012 1.47988C8.24012 1.79988 8.16012 2.22655 8.16012 2.75988L8.16012 23.6399C8.16012 24.1732 8.24012 24.5999 8.40012 24.9199C8.58678 25.2132 8.94678 25.4665 9.48012 25.6799L10.2801 25.9999L10.2801 26.3999L0.000117242 26.3999ZM11.9514 26.3999L11.9514 25.9999L12.5114 25.8399C13.4447 25.5732 13.9114 24.9199 13.9114 23.8799L13.9114 11.3599C13.9114 10.7732 13.818 10.3465 13.6314 10.0799C13.4447 9.78655 13.0847 9.58655 12.5514 9.47988L11.9514 9.31988L11.9514 8.91988L18.7914 6.59988L19.1914 6.99988L19.5114 9.39988C20.4447 8.57322 21.498 7.89322 22.6714 7.35988C23.8447 6.82655 25.0047 6.55988 26.1514 6.55988C27.9114 6.55988 29.258 7.03988 30.1914 7.99988C31.1514 8.95988 31.6314 10.4265 31.6314 12.3999L31.6314 23.9199C31.6314 24.9599 32.138 25.6132 33.1514 25.8799L33.5114 25.9999L33.5114 26.3999L24.0714 26.3999L24.0714 25.9999L24.5914 25.8399C25.5247 25.5466 25.9914 24.8932 25.9914 23.8799L25.9914 11.1199C25.9914 9.41322 25.138 8.55988 23.4314 8.55988C22.258 8.55988 20.978 9.14655 19.5914 10.3199L19.5914 23.9199C19.5914 24.9599 20.058 25.6132 20.9914 25.8799L21.3514 25.9999L21.3514 26.3999L11.9514 26.3999ZM42.4811 26.9999C40.7744 26.9999 39.4411 26.5732 38.4811 25.7199C37.5477 24.8666 37.0811 23.5065 37.0811 21.6399L37.0811 7.95988L34.3211 7.95988L34.3211 7.55988L35.2811 7.39988C36.1077 7.21322 36.8144 6.94655 37.4011 6.59988C38.0144 6.25322 38.6144 5.78655 39.2011 5.19988L42.4811 1.55988L42.8811 1.55988L42.7611 7.15988L47.2411 7.15988L47.2411 7.95988L42.7211 7.95988L42.7211 22.3599C42.7211 23.2932 42.9211 23.9999 43.3211 24.4799C43.7477 24.9599 44.2811 25.1999 44.9211 25.1999C45.4811 25.1999 45.9744 25.0666 46.4011 24.7999C46.8277 24.5065 47.2544 24.1199 47.6811 23.6399L48.0811 24.0399C47.5477 24.9465 46.8144 25.6665 45.8811 26.1999C44.9477 26.7332 43.8144 26.9999 42.4811 26.9999ZM59.257 6.55988C60.9903 6.55988 62.4703 6.91988 63.697 7.63988C64.9237 8.33322 65.857 9.29321 66.497 10.5199C67.1637 11.7199 67.497 13.0932 67.497 14.6399C67.497 14.9332 67.4837 15.2399 67.457 15.5599C67.4303 15.8532 67.377 16.1199 67.297 16.3599L55.377 16.3599C55.4037 19.2399 55.9103 21.3199 56.897 22.5999C57.9103 23.8532 59.4037 24.4799 61.377 24.4799C62.7103 24.4799 63.7903 24.2665 64.617 23.8399C65.4437 23.4132 66.217 22.7865 66.937 21.9599L67.337 22.3199C66.5103 23.7865 65.4037 24.9332 64.017 25.7599C62.657 26.5866 61.017 26.9999 59.097 26.9999C57.2037 26.9999 55.5237 26.5999 54.057 25.7999C52.5903 24.9732 51.4437 23.7999 50.617 22.2799C49.7903 20.7599 49.377 18.9465 49.377 16.8399C49.377 14.6532 49.857 12.7999 50.817 11.2799C51.777 9.73322 53.0037 8.55988 54.497 7.75988C56.017 6.95988 57.6037 6.55988 59.257 6.55988ZM59.137 7.35988C58.3637 7.35988 57.697 7.59988 57.137 8.07988C56.6037 8.53322 56.177 9.35988 55.857 10.5599C55.5637 11.7332 55.4037 13.3999 55.377 15.5599L62.217 15.5599C62.4837 12.6532 62.377 10.5599 61.897 9.27988C61.417 7.99988 60.497 7.35988 59.137 7.35988ZM69.4904 26.3999L69.4904 25.9999L70.0904 25.8399C70.6238 25.6799 70.9838 25.4399 71.1704 25.1199C71.3838 24.7999 71.4904 24.3866 71.4904 23.8799L71.4904 11.3599C71.4904 10.7732 71.3838 10.3465 71.1704 10.0799C70.9838 9.78655 70.6238 9.58655 70.0904 9.47988L69.4904 9.31988L69.4904 8.91988L76.3704 6.59988L76.7704 6.99988L77.1304 10.4399L77.1304 10.7599C77.5038 10.0132 77.9838 9.33322 78.5704 8.71988C79.1838 8.07988 79.8504 7.55988 80.5704 7.15988C81.3171 6.75988 82.0504 6.55988 82.7704 6.55988C83.7838 6.55988 84.5571 6.83988 85.0904 7.39988C85.6238 7.95988 85.8904 8.66655 85.8904 9.51988C85.8904 10.4265 85.6238 11.1332 85.0904 11.6399C84.5838 12.1199 83.9704 12.3599 83.2504 12.3599C82.1304 12.3599 81.1438 11.7999 80.2904 10.6799L80.2104 10.5999C79.9438 10.2265 79.6371 10.0266 79.2904 9.99988C78.9438 9.94655 78.6238 10.1065 78.3304 10.4799C78.0638 10.7199 77.8371 11.0132 77.6504 11.3599C77.4904 11.6799 77.3304 12.0532 77.1704 12.4799L77.1704 23.6399C77.1704 24.7066 77.6371 25.3732 78.5704 25.6399L79.8504 25.9999L79.8504 26.3999L69.4904 26.3999ZM87.1467 26.3999L87.1467 25.9999L87.7067 25.8399C88.64 25.5732 89.1067 24.9199 89.1067 23.8799L89.1067 11.3599C89.1067 10.7732 89.0133 10.3465 88.8267 10.0799C88.64 9.78655 88.28 9.58655 87.7467 9.47988L87.1467 9.31988L87.1467 8.91988L93.9867 6.59988L94.3867 6.99988L94.7067 9.39988C95.64 8.57322 96.6933 7.89322 97.8667 7.35988C99.04 6.82655 100.2 6.55988 101.347 6.55988C103.107 6.55988 104.453 7.03988 105.387 7.99988C106.347 8.95988 106.827 10.4265 106.827 12.3999L106.827 23.9199C106.827 24.9599 107.333 25.6132 108.347 25.8799L108.707 25.9999L108.707 26.3999L99.2667 26.3999L99.2667 25.9999L99.7867 25.8399C100.72 25.5466 101.187 24.8932 101.187 23.8799L101.187 11.1199C101.187 9.41322 100.333 8.55988 98.6267 8.55988C97.4533 8.55988 96.1733 9.14655 94.7867 10.3199L94.7867 23.9199C94.7867 24.9599 95.2533 25.6132 96.1867 25.8799L96.5467 25.9999L96.5467 26.3999L87.1467 26.3999ZM120.392 26.9999C118.365 26.9999 116.605 26.5866 115.112 25.7599C113.618 24.9066 112.458 23.7066 111.632 22.1599C110.832 20.6132 110.432 18.7999 110.432 16.7199C110.432 14.6399 110.858 12.8399 111.712 11.3199C112.592 9.79988 113.778 8.62655 115.272 7.79988C116.792 6.97322 118.498 6.55988 120.392 6.55988C122.285 6.55988 123.978 6.97322 125.472 7.79988C126.965 8.59988 128.138 9.75988 128.992 11.2799C129.872 12.7999 130.312 14.6132 130.312 16.7199C130.312 18.8265 129.898 20.6532 129.072 22.1999C128.272 23.7199 127.125 24.9066 125.632 25.7599C124.165 26.5866 122.418 26.9999 120.392 26.9999ZM120.392 26.1999C121.325 26.1999 122.072 25.9332 122.632 25.3999C123.192 24.8666 123.592 23.9199 123.832 22.5599C124.098 21.1999 124.232 19.2799 124.232 16.7999C124.232 14.2932 124.098 12.3599 123.832 10.9999C123.592 9.63988 123.192 8.69322 122.632 8.15988C122.072 7.62655 121.325 7.35988 120.392 7.35988C119.458 7.35988 118.698 7.62655 118.112 8.15988C117.552 8.69322 117.138 9.63988 116.872 10.9999C116.632 12.3599 116.512 14.2932 116.512 16.7999C116.512 19.2799 116.632 21.1999 116.872 22.5599C117.138 23.9199 117.552 24.8666 118.112 25.3999C118.698 25.9332 119.458 26.1999 120.392 26.1999Z" fill="#292F36" fill-opacity="1.000000" fill-rule="evenodd"/>
</svg>
