<svg width="102.320312" height="102.319885" viewBox="0 0 102.32 102.32" fill="none" xmlns="http://www.w3.org/2000/svg" xmlns:xlink="http://www.w3.org/1999/xlink">
	<desc>
			Created with Pixso.
	</desc>
	<defs/>
	<path d="M101.605 51.1599C101.605 79.0205 79.0195 101.606 51.1592 101.606C23.2988 101.606 0.712891 79.0205 0.712891 51.1599C0.712891 23.2991 23.2988 0.713623 51.1592 0.713623C79.0195 0.713623 101.605 23.2991 101.605 51.1599Z" fill="#FFFFFF" fill-opacity="1.000000" fill-rule="evenodd"/>
	<path d="M51.1602 102.32C22.9531 102.32 0 79.3664 0 51.1599C0 22.9534 22.9531 0 51.1602 0C79.3662 0 102.32 22.9534 102.32 51.1599C102.32 79.3664 79.3662 102.32 51.1602 102.32ZM51.1602 1.42743C23.7383 1.42743 1.42773 23.7385 1.42773 51.1599C1.42773 78.5813 23.7383 100.892 51.1602 100.892C78.5811 100.892 100.893 78.5813 100.893 51.1599C100.893 23.7385 78.5811 1.42743 51.1602 1.42743Z" fill="#292F36" fill-opacity="1.000000" fill-rule="nonzero"/>
	<path d="M58.3535 5.83826C58.6963 5.86682 58.9961 5.8811 59.2393 5.8811L59.21 6.1095C58.8105 6.16656 58.4678 6.46637 58.1973 7.03735L54.7998 13.832L54.6992 13.8177L54.6143 13.8035L52.458 6.22369C52.3154 5.72406 52.0732 5.45288 51.7305 5.41003L51.7588 5.18164C52.0732 5.23871 52.4873 5.28156 53.001 5.33868C53.6719 5.39575 54.1719 5.4386 54.5 5.4386L54.4707 5.66699C54.1719 5.65271 53.957 5.66699 53.8291 5.70978C53.7002 5.75262 53.6289 5.86682 53.6143 6.00958C53.6006 6.13806 53.6289 6.32361 53.7002 6.56628L55.2852 12.3618L57.6396 7.62256C57.8398 7.23718 57.9395 6.92316 57.9688 6.69476C57.9971 6.45209 57.9258 6.26648 57.7686 6.13806C57.6113 6.00958 57.3545 5.93817 57.0117 5.89539L57.041 5.66699C57.4541 5.73834 57.8975 5.79547 58.3535 5.83826Z" fill="#292F36" fill-opacity="1.000000" fill-rule="nonzero"/>
	<path d="M67.9473 8.85022C67.8037 8.85022 67.6904 8.90729 67.6045 9.02148C67.5186 9.13568 67.4189 9.32129 67.3184 9.59247L65.2773 15.0168C65.1777 15.288 65.1201 15.5021 65.1201 15.6449C65.1201 15.7877 65.1631 15.9019 65.2637 15.9875C65.3633 16.0731 65.5488 16.173 65.8057 16.2872L65.7197 16.5013C65.3916 16.3586 64.9346 16.173 64.3496 15.9446C63.7217 15.702 63.251 15.545 62.9365 15.4451L63.0225 15.231C63.293 15.3166 63.4932 15.3594 63.6221 15.3594C63.75 15.3594 63.8789 15.3023 63.9639 15.1881C64.0498 15.0739 64.1494 14.8884 64.25 14.6171L66.291 9.19281C66.3906 8.92157 66.4482 8.70746 66.4482 8.5647C66.4482 8.422 66.4053 8.3078 66.3057 8.22211C66.2051 8.13647 66.0195 8.03656 65.7627 7.92236L65.8486 7.70825C66.1484 7.83673 66.6055 8.02228 67.2334 8.26495C67.8184 8.49335 68.2891 8.65039 68.6318 8.75031L68.5469 8.96442C68.2891 8.87878 68.0898 8.83594 67.9473 8.85022Z" fill="#292F36" fill-opacity="1.000000" fill-rule="nonzero"/>
	<path d="M80.6504 16.4015C80.5078 16.3729 80.3652 16.4158 80.2363 16.5014C80.1084 16.5871 79.9512 16.7584 79.7803 17.001L75.6406 22.6109L75.4258 22.4539L75.9824 13.4324L72.3145 18.4C72.1426 18.6426 72.0283 18.8425 71.9717 18.9995C71.9141 19.1565 71.9434 19.2993 72.0146 19.442C72.0859 19.5847 72.2568 19.7418 72.5 19.9416L72.3574 20.1271C72.1426 19.9416 71.8291 19.6989 71.415 19.3849C71.0439 19.1136 70.7441 18.8995 70.5156 18.7711L70.6582 18.5855C70.8867 18.7426 71.0723 18.8282 71.2148 18.8425C71.3574 18.871 71.501 18.8282 71.6289 18.7426C71.7578 18.6426 71.9141 18.4856 72.0859 18.2429L75.4551 13.675C75.626 13.4324 75.7402 13.2468 75.7832 13.1183C75.8262 12.9899 75.8115 12.8614 75.7402 12.7472C75.6689 12.633 75.5264 12.4903 75.2979 12.3047L75.4404 12.1191C75.626 12.2904 75.9111 12.5188 76.2969 12.79C76.582 13.0042 76.8252 13.1755 77.0537 13.304L76.5967 20.8694L79.5654 16.844C79.7373 16.6013 79.8652 16.4015 79.9082 16.2445C79.9512 16.0875 79.9365 15.9447 79.8652 15.8019C79.7939 15.6592 79.623 15.4879 79.3799 15.3024L79.5225 15.1168C79.7373 15.3024 80.0508 15.545 80.4648 15.8591C80.8359 16.1303 81.1357 16.3444 81.3643 16.4729L81.2217 16.6584C80.9785 16.5157 80.793 16.4158 80.6504 16.4015Z" fill="#292F36" fill-opacity="1.000000" fill-rule="nonzero"/>
	<path d="M85.4326 22.8394C85.8037 22.5681 86.1895 22.2684 86.6035 21.8972C86.96 22.4396 87.5879 23.3389 88.4873 24.6094C89.3867 25.8655 90.0293 26.7505 90.415 27.2645C89.9297 27.5499 89.5156 27.8069 89.1445 28.0638C88.8301 28.2922 88.5732 28.4921 88.3877 28.649L88.2305 28.4349C88.6875 28.0353 89.001 27.707 89.1865 27.4643C89.373 27.2216 89.4443 26.9647 89.4297 26.6935C89.415 26.4222 89.2441 26.0939 88.9727 25.6942L88.6016 25.1804L83.1914 29.0345C82.9346 29.22 82.749 29.3914 82.6631 29.5198C82.5781 29.6483 82.5498 29.8053 82.6064 29.9766C82.6494 30.1336 82.7773 30.362 82.9629 30.6475L82.7773 30.7902C82.5635 30.4477 82.2354 29.9623 81.8066 29.3771C81.3506 28.7347 81.0078 28.278 80.7793 27.9924L80.9648 27.8497C81.1787 28.1209 81.3506 28.3065 81.4932 28.4064C81.6357 28.5063 81.7783 28.5349 81.9355 28.4921C82.0928 28.4492 82.3066 28.335 82.5635 28.1495L87.9736 24.2953L87.6025 23.7814C87.3174 23.3818 87.0605 23.1391 86.8174 23.0249C86.5752 22.9107 86.3037 22.8964 86.0176 22.9963C85.7324 23.0963 85.3184 23.2819 84.79 23.5816L84.6338 23.3675C84.8477 23.2533 85.1045 23.082 85.4326 22.8394Z" fill="#292F36" fill-opacity="1.000000" fill-rule="nonzero"/>
	<path d="M88.1738 42.6523L87.9453 42.7237C87.8594 42.4096 87.7451 42.0099 87.5742 41.5246C87.3604 40.8965 87.1885 40.4255 87.0605 40.1115L87.2891 40.04C87.3887 40.3113 87.5029 40.5111 87.5879 40.611C87.6885 40.7109 87.8164 40.7395 87.96 40.6824C88.0879 40.6396 88.2451 40.5397 88.4307 40.3826L90.0146 39.0837L89.1162 36.4143L87.7881 36.3572C87.3604 36.3287 87.0312 36.3572 86.8037 36.4429C86.5752 36.5285 86.4316 36.657 86.375 36.8425C86.332 37.0281 86.3604 37.2993 86.4609 37.6277L86.2324 37.699C86.1182 37.2708 85.9756 36.8425 85.833 36.4143C85.7188 36.086 85.6182 35.8148 85.5186 35.6006L85.7471 35.5293C85.9473 35.8719 86.375 36.0574 87.0029 36.0717L94.5967 36.4143L94.6543 36.5856L88.6016 41.6245C88.2305 41.9814 88.0879 42.3097 88.1738 42.6523ZM93.127 36.5856L89.3867 36.4286L90.2295 38.9409L93.127 36.5856Z" fill="#292F36" fill-opacity="1.000000" fill-rule="nonzero"/>
	<path d="M89.2148 53.5724C89.3574 53.5153 89.4297 53.4439 89.4297 53.344C89.4297 53.2869 89.415 53.2441 89.3867 53.2012C89.3574 53.1584 89.3008 53.0728 89.2148 52.9586C89.001 52.6874 88.8438 52.4019 88.7295 52.1164C88.6152 51.8309 88.5586 51.5026 88.5586 51.1458C88.5439 50.3464 88.7012 49.6612 89.0156 49.0759C89.3438 48.4907 89.8008 48.0482 90.4287 47.7341C91.042 47.42 91.7842 47.2631 92.6553 47.2488C93.5547 47.2345 94.3398 47.3773 95.0107 47.6913C95.6816 48.0053 96.21 48.4336 96.5811 49.0046C96.9521 49.5755 97.1514 50.2179 97.1514 50.9316C97.1514 51.2457 97.123 51.5311 97.0664 51.7738C97.0088 52.0165 96.9238 52.2306 96.8232 52.4161C96.7236 52.6017 96.5947 52.8159 96.4238 53.0443C96.3525 53.1442 96.3096 53.2298 96.3096 53.2869C96.3096 53.4296 96.5527 53.5295 97.0234 53.5724L97.0234 53.8436C96.5234 53.8151 95.624 53.8151 94.3398 53.8436L94.3398 53.5724C94.7539 53.501 95.0967 53.4154 95.3672 53.3297C95.6387 53.2441 95.8672 53.1156 96.0674 52.9586C96.3379 52.7302 96.5664 52.4304 96.7236 52.0593C96.8809 51.6882 96.9521 51.317 96.9521 50.9174C96.9375 50.4034 96.7666 49.9609 96.4238 49.5755C96.0811 49.1901 95.5957 48.9046 94.9824 48.6905C94.3535 48.4907 93.6406 48.3907 92.8125 48.405C91.8701 48.4193 91.1133 48.5335 90.5137 48.7476C89.915 48.9617 89.4863 49.2758 89.2012 49.6897C88.915 50.1037 88.7871 50.6318 88.8008 51.2742C88.8154 51.7452 88.9443 52.145 89.1865 52.4875C89.2861 52.6302 89.3721 52.7159 89.4717 52.7587C89.5576 52.8016 89.6865 52.8159 89.8428 52.8159L90.9707 52.8016C91.2988 52.8016 91.5273 52.7587 91.6846 52.7017C91.8271 52.6445 91.9414 52.5303 91.9844 52.3591C92.041 52.202 92.0703 51.9451 92.0703 51.6025L92.2988 51.6025C92.2842 51.9879 92.2695 52.5303 92.2842 53.2584C92.2988 53.8008 92.3125 54.2147 92.3408 54.4717L92.1133 54.4717C92.0986 54.2861 92.0557 54.1577 92.0127 54.0863C91.9697 54.0149 91.8701 53.9578 91.7422 53.9293C91.6133 53.9007 91.3994 53.8864 91.0996 53.9007L88.7871 53.9435L88.7871 53.7151C88.915 53.658 89.0723 53.6295 89.2148 53.5724Z" fill="#292F36" fill-opacity="1.000000" fill-rule="nonzero"/>
	<path d="M87.5166 65.72C87.1025 65.5915 86.6172 65.463 86.0605 65.3488C86.2461 64.8492 86.5176 64.007 86.9023 62.8079C87.3594 61.3805 87.6875 60.2957 87.8877 59.5676L88.1162 59.639C88.0449 59.9102 88.0166 60.11 88.0166 60.2528C88.0303 60.3956 88.0879 60.4955 88.2021 60.5811C88.3164 60.6667 88.5156 60.7524 88.7871 60.8381L94.3115 62.5795C94.5967 62.6652 94.7969 62.708 94.9395 62.708C95.082 62.708 95.1963 62.6509 95.2822 62.5367C95.3672 62.4225 95.4531 62.2369 95.5527 61.98L95.7812 62.0514C95.5244 62.7794 95.1816 63.85 94.7256 65.2775C94.3828 66.3623 94.1396 67.1474 94.0254 67.6185C93.5547 67.4186 93.126 67.2473 92.7266 67.1331C92.4414 67.0475 92.1982 66.9761 92.0273 66.9476L92.1133 66.6906C92.6123 66.7905 92.998 66.8334 93.2549 66.8334C93.5117 66.8334 93.7256 66.7477 93.8975 66.5764C94.0684 66.4194 94.2109 66.1339 94.3398 65.7485L94.625 64.8207C94.7109 64.5494 94.7539 64.3496 94.7393 64.2211C94.7256 64.0927 94.6826 63.9785 94.5684 63.8928C94.4541 63.8072 94.2686 63.7215 93.9824 63.6359L91.3564 62.8079L91.1279 63.5502C91.0137 63.9214 91.042 64.2068 91.2275 64.4067C91.4131 64.6066 91.6133 64.7493 91.8418 64.8492C92.0703 64.9492 92.2129 65.0205 92.2695 65.0491L92.1846 65.306C91.8271 65.1633 91.4854 65.0348 91.1426 64.9349L90.6143 64.7778C90.2432 64.6636 89.7002 64.5066 89.0156 64.3496L89.1006 64.0927C89.1582 64.1069 89.3438 64.1355 89.6582 64.2068C89.9717 64.264 90.2432 64.2354 90.457 64.1212C90.6709 64.007 90.8135 63.7929 90.9141 63.4931L91.1426 62.7509L88.459 61.9086C88.1729 61.823 87.9736 61.7802 87.8311 61.7802C87.6875 61.7802 87.5732 61.8373 87.502 61.9515C87.417 62.0657 87.3311 62.2512 87.2451 62.5225L86.9883 63.3361C86.8457 63.8072 86.7881 64.1783 86.8457 64.4495C86.8887 64.735 87.0312 64.9634 87.2734 65.1633C87.5166 65.3488 87.8877 65.5629 88.3877 65.7913L88.3018 66.0483C88.1299 65.9198 87.8594 65.8342 87.5166 65.72Z" fill="#292F36" fill-opacity="1.000000" fill-rule="nonzero"/>
	<path d="M83.4482 83.2349C83.5059 83.1064 83.4912 82.978 83.4346 82.8495C83.377 82.721 83.2344 82.564 83.0205 82.3499L78.8232 78.3387C78.6094 78.1389 78.4385 78.0104 78.3096 77.9533C78.1807 77.8962 78.0527 77.8962 77.9238 77.9533C77.7959 78.0104 77.6387 78.1389 77.4385 78.3387L77.2676 78.1817C77.5391 77.939 77.8818 77.5822 78.3242 77.1396C78.7803 76.6544 79.123 76.2832 79.3369 76.0405L79.5088 76.1976C79.3232 76.4117 79.209 76.5829 79.1514 76.6971C79.0947 76.8256 79.1094 76.9541 79.166 77.0826C79.2236 77.2111 79.3662 77.368 79.5801 77.5822L83.7764 81.5933C83.9912 81.7932 84.1621 81.9216 84.291 81.9788C84.4189 82.0358 84.5479 82.0358 84.6758 81.9788C84.8047 81.9216 84.9619 81.7932 85.1611 81.5933L85.333 81.7504C85.0898 81.9645 84.7334 82.3213 84.2764 82.8066C83.834 83.2634 83.5059 83.6346 83.2773 83.9058L83.1055 83.7488C83.2773 83.5347 83.3916 83.3633 83.4482 83.2349Z" fill="#292F36" fill-opacity="1.000000" fill-rule="nonzero"/>
	<path d="M71.5576 91.9423C71.6436 91.8138 71.6582 91.6853 71.6289 91.5283C71.6006 91.3713 71.501 91.1714 71.3438 90.9002L67.8037 84.8906L68.0322 84.7479L76.1113 88.7875L72.9854 83.4774C72.8281 83.2205 72.7002 83.0349 72.5713 82.935C72.4434 82.8351 72.2998 82.7922 72.1436 82.8065C71.9863 82.8208 71.7725 82.9064 71.501 83.0492L71.3721 82.8494C71.6289 82.7352 71.9717 82.5353 72.4141 82.2784C72.8145 82.0357 73.1143 81.8502 73.3281 81.6931L73.4424 81.8929C73.2139 82.0357 73.0566 82.1785 72.9854 82.3069C72.8994 82.4354 72.8857 82.5638 72.9141 82.7209C72.9424 82.8779 73.042 83.0778 73.1992 83.3489L76.083 88.2451C76.2256 88.5021 76.3545 88.6733 76.4688 88.759C76.583 88.8447 76.6963 88.8875 76.8398 88.8589C76.9678 88.8304 77.168 88.759 77.4102 88.6306L77.5244 88.8304C77.2959 88.9446 76.9824 89.1158 76.5684 89.3585C76.2686 89.5298 76.0117 89.7011 75.7979 89.8439L69.0166 86.4608L71.5576 90.7717C71.7148 91.0287 71.8438 91.2142 71.9717 91.3141C72.0859 91.4141 72.2285 91.4569 72.4004 91.4426C72.5713 91.4283 72.7852 91.3427 73.0566 91.2L73.1709 91.3998C72.9141 91.514 72.5713 91.7139 72.1289 91.9708C71.7295 92.2134 71.4297 92.399 71.2148 92.556L71.1016 92.3562C71.3154 92.1992 71.4727 92.0565 71.5576 91.9423Z" fill="#292F36" fill-opacity="1.000000" fill-rule="nonzero"/>
	<path d="M63.7061 93.8124C63.8066 94.2549 63.9346 94.7402 64.1064 95.2542C63.4639 95.3683 62.3936 95.5967 60.8799 95.9108C59.3672 96.2391 58.3105 96.4818 57.6826 96.6387C57.6113 96.082 57.54 95.5967 57.4395 95.1542C57.3545 94.7688 57.2832 94.4548 57.1973 94.2264L57.4541 94.1693C57.6396 94.7545 57.8115 95.1685 57.9678 95.4397C58.125 95.7109 58.3252 95.8822 58.582 95.9678C58.8389 96.0535 59.21 96.0392 59.6807 95.9393L60.2949 95.8109L58.8955 89.3159C58.8242 89.0019 58.7529 88.7735 58.6533 88.645C58.5537 88.5165 58.4395 88.4309 58.2676 88.4166C58.0967 88.3881 57.8398 88.4166 57.4971 88.4738L57.4541 88.2454C57.8535 88.1882 58.4248 88.074 59.1387 87.917C59.8955 87.7457 60.4658 87.6172 60.8232 87.5173L60.8662 87.7457C60.5234 87.8314 60.2949 87.917 60.1523 88.0027C60.0098 88.0883 59.9238 88.2168 59.8955 88.3738C59.8662 88.5308 59.8809 88.7735 59.9521 89.0875L61.3516 95.5825L61.9648 95.454C62.4355 95.3541 62.7783 95.2113 62.9785 95.0258C63.1787 94.8401 63.293 94.5975 63.3213 94.2977C63.3496 93.998 63.335 93.5412 63.2637 92.9417L63.5205 92.8846C63.5635 93.113 63.6211 93.427 63.7061 93.8124Z" fill="#292F36" fill-opacity="1.000000" fill-rule="nonzero"/>
	<path d="M44.7646 89.8011C44.8076 89.3586 44.8213 88.8589 44.8213 88.3022C45.3496 88.3736 46.2344 88.4593 47.4912 88.5735C48.9756 88.7019 50.1035 88.8019 50.874 88.8447L50.8594 89.0731C50.5742 89.0588 50.374 89.0731 50.2461 89.1159C50.1172 89.1587 50.0176 89.2301 49.9609 89.3586C49.9033 89.487 49.8604 89.7012 49.832 89.9866L49.3184 95.7678C49.29 96.0533 49.3037 96.2675 49.332 96.4102C49.3613 96.5529 49.4463 96.6528 49.5752 96.71C49.7031 96.767 49.9033 96.8242 50.1748 96.8527L50.1602 97.0811C49.4033 96.9954 48.2764 96.8812 46.792 96.7527C45.6494 96.6528 44.8359 96.5958 44.3506 96.5672C44.4502 96.0676 44.5215 95.6108 44.5508 95.1968C44.5791 94.8971 44.5928 94.6544 44.5791 94.4689L44.8506 94.4974C44.8643 95.0113 44.8926 95.3824 44.9648 95.6393C45.0215 95.8963 45.1504 96.0818 45.3496 96.2103C45.5352 96.3388 45.8496 96.4244 46.249 96.453L47.2197 96.5386C47.5049 96.5672 47.7051 96.5529 47.834 96.5244C47.9619 96.4958 48.0615 96.4102 48.1191 96.2817C48.1758 96.1533 48.2188 95.9391 48.2471 95.6536L48.4902 92.9129L47.7197 92.8416C47.334 92.813 47.0625 92.8986 46.9053 93.127C46.7627 93.3554 46.6484 93.5838 46.6064 93.8265C46.5488 94.0692 46.5205 94.2262 46.5059 94.2975L46.2344 94.269C46.292 93.8836 46.335 93.5267 46.3779 93.1699L46.4199 92.6132C46.4492 92.2134 46.4775 91.671 46.5059 90.9573L46.7773 90.9858C46.7773 91.043 46.792 91.2285 46.792 91.5568C46.8057 91.8851 46.877 92.1421 47.0488 92.3134C47.2051 92.499 47.4482 92.5989 47.7617 92.6274L48.5332 92.6988L48.7754 89.901C48.8047 89.6155 48.79 89.4014 48.7617 89.2587C48.7324 89.1302 48.6475 89.0303 48.5186 88.9731C48.3906 88.9161 48.1904 88.8732 47.9189 88.8447L47.0625 88.7733C46.5771 88.7305 46.2061 88.759 45.9355 88.8732C45.6777 88.9731 45.4785 89.173 45.3359 89.4442C45.1924 89.7155 45.0781 90.1294 44.9648 90.6718L44.6934 90.6432C44.6934 90.4291 44.7217 90.1437 44.7646 89.8011Z" fill="#292F36" fill-opacity="1.000000" fill-rule="nonzero"/>
	<path d="M33.5303 84.5053C33.7451 84.4625 33.9873 84.5053 34.2441 84.6195C34.5439 84.748 34.7441 84.9335 34.8584 85.1762C34.9727 85.4332 34.9863 85.79 34.915 86.261L34.7012 87.4316C34.6299 87.8455 34.5869 88.1596 34.5723 88.4022C34.5586 88.6306 34.6152 88.8448 34.7148 89.0303C34.8154 89.2159 35.001 89.3586 35.2725 89.4728L36.2998 89.9011L37.3418 87.4173C37.4561 87.1461 37.5127 86.9462 37.5273 86.8035C37.542 86.6608 37.4844 86.5466 37.3848 86.4467C37.2852 86.3467 37.1133 86.2468 36.8564 86.1326L36.9424 85.9185C37.2705 86.0755 37.7129 86.2753 38.2979 86.518C38.9121 86.775 39.3828 86.9605 39.6973 87.0604L39.6113 87.2745C39.3398 87.1746 39.1406 87.1318 39.0117 87.1176C38.8691 87.1176 38.7549 87.1603 38.6689 87.2745C38.5693 87.3745 38.4697 87.5601 38.3555 87.8312L36.1143 93.1842C36 93.4554 35.9434 93.6553 35.9287 93.798C35.9141 93.9408 35.9717 94.055 36.0713 94.1549C36.1709 94.2548 36.3428 94.3547 36.5996 94.4832L36.5137 94.6973C36.2139 94.5546 35.7861 94.3547 35.2148 94.1121C34.9297 93.9979 34.6299 93.8694 34.2871 93.7267C33.9443 93.5839 33.7158 93.4982 33.5879 93.4412C33.0312 93.1985 32.5889 92.9273 32.2598 92.5989C31.9316 92.2706 31.7461 91.928 31.6602 91.5569C31.5752 91.1858 31.6182 90.8289 31.7744 90.472C31.8887 90.1866 32.0742 89.9296 32.3311 89.7012C32.5889 89.4728 32.917 89.3016 33.3164 89.2159C33.7158 89.1302 34.2012 89.1445 34.7295 89.273L34.6016 89.2016C34.3018 89.0161 34.0732 88.8305 33.9307 88.6306C33.7871 88.4451 33.6875 88.231 33.6592 88.0026C33.6162 87.7742 33.6309 87.4887 33.6875 87.1461L33.8877 85.9327C33.9307 85.6901 33.959 85.5045 33.959 85.3618C33.959 85.2191 33.9443 85.1049 33.9014 85.0192C33.8584 84.9335 33.7871 84.8622 33.6875 84.8336C33.5732 84.7765 33.459 84.7765 33.3594 84.8051C33.2598 84.8336 33.1162 84.905 32.9307 85.0049L32.8164 84.8193C33.0742 84.6623 33.3164 84.5482 33.5303 84.5053ZM34.2441 89.587C33.9014 89.6299 33.6309 89.7583 33.416 89.9725C33.2021 90.1866 33.0166 90.472 32.8594 90.8432C32.6172 91.4285 32.5596 91.9423 32.7168 92.3563C32.874 92.7703 33.2598 93.1129 33.9014 93.384C34.1299 93.484 34.3018 93.5268 34.4443 93.5125C34.5723 93.5125 34.6865 93.4554 34.7871 93.3412C34.8867 93.2271 34.9863 93.0415 35.0869 92.7845L36.2002 90.1295L35.4717 89.8297C35.001 89.6299 34.5869 89.5442 34.2441 89.587Z" fill="#292F36" fill-opacity="1.000000" fill-rule="nonzero"/>
	<path d="M22.3965 86.4467C22.5244 86.4896 22.6533 86.461 22.7676 86.3896C22.8818 86.3183 23.0381 86.1613 23.2236 85.9329L26.8066 81.365C26.9922 81.1366 27.1064 80.951 27.1494 80.8226C27.1924 80.6941 27.1777 80.5656 27.1064 80.4514C27.0352 80.3372 26.8926 80.1802 26.6787 79.9946L26.8213 79.8091C27.0928 80.0518 27.4639 80.3658 27.9629 80.7512C28.4912 81.1652 28.8906 81.4649 29.1621 81.6505L29.0195 81.8361C28.791 81.6648 28.6055 81.5648 28.4775 81.5363C28.3486 81.4935 28.2197 81.5078 28.1055 81.5934C27.9922 81.6648 27.835 81.8218 27.6494 82.0502L24.0664 86.618C23.8809 86.8464 23.7666 87.032 23.7236 87.1605C23.6807 87.2889 23.6953 87.4174 23.7666 87.5316C23.8379 87.6458 23.9805 87.8028 24.1943 87.9884L24.0518 88.174C23.8096 87.9598 23.4238 87.6458 22.8955 87.2176C22.3965 86.8322 21.9961 86.5324 21.7109 86.3325L21.8535 86.147C22.0967 86.304 22.2676 86.4039 22.3965 86.4467Z" fill="#292F36" fill-opacity="1.000000" fill-rule="nonzero"/>
	<path d="M13.1758 76.2832C13.1182 75.6409 13.2607 74.9985 13.5889 74.3847C13.9316 73.7566 14.4453 73.1999 15.1592 72.6718C15.8594 72.1721 16.5586 71.8438 17.2861 71.7153C18.0146 71.5869 18.6855 71.6297 19.3135 71.8724C19.9414 72.1151 20.4697 72.529 20.8838 73.1143C21.3262 73.7138 21.5684 74.3419 21.626 74.9843C21.6826 75.6266 21.54 76.2689 21.2119 76.8828C20.8691 77.5108 20.3555 78.0675 19.6416 78.5957C18.9424 79.0953 18.2432 79.4236 17.5146 79.5521C16.8008 79.6805 16.1162 79.6377 15.4883 79.3951C14.8594 79.1524 14.332 78.7384 13.918 78.1674C13.4756 77.5536 13.2324 76.9255 13.1758 76.2832ZM15.3164 78.8241C15.8164 78.924 16.3867 78.8812 17.0156 78.6813C17.6436 78.4815 18.2715 78.1532 18.9277 77.6678C19.585 77.1968 20.0986 76.6829 20.4551 76.1404C20.8262 75.598 21.0264 75.0556 21.0547 74.5417C21.0977 74.0278 20.9697 73.571 20.6982 73.1856C20.3984 72.7859 20.0127 72.529 19.499 72.4291C18.999 72.3292 18.4287 72.372 17.8008 72.5718C17.1719 72.7717 16.5439 73.1 15.8877 73.571C15.2305 74.0421 14.7168 74.556 14.3604 75.1127C13.9893 75.6552 13.7891 76.1833 13.7461 76.7114C13.7031 77.2253 13.832 77.6821 14.1035 78.0675C14.4033 78.4672 14.8027 78.7242 15.3164 78.8241Z" fill="#292F36" fill-opacity="1.000000" fill-rule="nonzero"/>
	<path d="M14.2744 59.0967C14.4453 59.2252 14.5742 59.4393 14.6602 59.7248C14.7598 60.0246 14.7451 60.3101 14.6309 60.5527C14.5176 60.8097 14.2461 61.0524 13.832 61.295L12.79 61.8802C12.4326 62.0944 12.1621 62.2657 11.9766 62.4084C11.791 62.5512 11.6621 62.7225 11.5908 62.9223C11.5195 63.1221 11.5195 63.3505 11.6055 63.636L11.9336 64.7067L14.5029 63.9073C14.7881 63.8216 14.9736 63.736 15.0879 63.6503C15.2021 63.5647 15.2598 63.4505 15.2734 63.322C15.2881 63.1935 15.2451 62.9794 15.1738 62.7082L15.4023 62.6368C15.4883 62.9794 15.6162 63.4647 15.8164 64.0643C16.0156 64.7066 16.1729 65.1777 16.2871 65.4775L16.0586 65.5488C15.959 65.2776 15.873 65.092 15.7871 64.9921C15.7021 64.8922 15.5879 64.8208 15.4453 64.8208C15.3018 64.8208 15.0879 64.8494 14.8174 64.9493L9.27832 66.6622C8.99316 66.7479 8.80762 66.8336 8.69336 66.9192C8.5791 67.0048 8.52148 67.119 8.50781 67.2475C8.49316 67.3903 8.53613 67.5901 8.60742 67.8613L8.37891 67.9327C8.30762 67.6187 8.17969 67.1619 7.99414 66.5623C7.9082 66.2769 7.79395 65.9485 7.67969 65.606C7.56543 65.2634 7.47949 65.0207 7.43652 64.8922C7.25098 64.3069 7.19434 63.7931 7.2373 63.3363C7.28027 62.8795 7.42285 62.5084 7.65137 62.2086C7.87988 61.9088 8.17969 61.709 8.55078 61.5948C8.83594 61.5092 9.15039 61.4806 9.49219 61.5234C9.83496 61.5662 10.1631 61.709 10.5059 61.9659C10.8486 62.2228 11.1338 62.594 11.377 63.0936L11.3623 62.9509C11.3193 62.594 11.3057 62.3085 11.3623 62.0659C11.4199 61.8232 11.5195 61.6234 11.6621 61.452C11.8193 61.2808 12.0479 61.0952 12.3477 60.9239L13.4033 60.2958C13.6182 60.1816 13.7891 60.0674 13.8887 59.9818C13.9893 59.8961 14.0742 59.8105 14.1172 59.7248C14.1602 59.6392 14.1602 59.5392 14.1318 59.4393C14.0889 59.3109 14.0322 59.2252 13.9463 59.1681C13.8604 59.111 13.7178 59.0397 13.5176 58.9683L13.5889 58.7542C13.875 58.8541 14.1172 58.9683 14.2744 59.0967ZM10.8633 62.9223C10.6201 62.6939 10.335 62.5654 10.0352 62.5369C9.73535 62.5084 9.39258 62.5511 9.00684 62.6796C8.39355 62.8652 7.97949 63.165 7.75098 63.5504C7.52246 63.9358 7.52246 64.464 7.72266 65.1063C7.79395 65.3347 7.87988 65.506 7.96484 65.606C8.05078 65.7059 8.17969 65.7629 8.32227 65.7629C8.46484 65.7629 8.67871 65.7202 8.93555 65.6487L11.6768 64.7923L11.4482 64.0357C11.3057 63.5219 11.1055 63.1507 10.8633 62.9223Z" fill="#292F36" fill-opacity="1.000000" fill-rule="nonzero"/>
	<path d="M13.1758 45.5502C13.7178 45.3075 14.0459 44.8507 14.1895 44.1655C14.2314 43.9086 14.2314 43.6517 14.1602 43.409C14.0889 43.1663 13.9609 42.9522 13.7607 42.7666C13.5605 42.5811 13.29 42.4526 12.9326 42.3955C12.6328 42.3384 12.3623 42.3669 12.1045 42.4669C11.8477 42.5668 11.5908 42.7238 11.3486 42.9379C11.1055 43.152 10.8203 43.4375 10.5059 43.7944C10.1494 44.1941 9.83496 44.5224 9.56445 44.7508C9.29297 44.9935 8.99316 45.1647 8.66504 45.2932C8.33691 45.4217 7.96582 45.436 7.55176 45.3646C7.12305 45.2789 6.7666 45.1219 6.50977 44.865C6.25195 44.608 6.06641 44.3083 5.98145 43.9514C5.89551 43.5945 5.89551 43.2234 5.9668 42.8237C6.00977 42.5811 6.06641 42.3955 6.13867 42.2242C6.20996 42.0529 6.28125 41.9244 6.36621 41.8245C6.45215 41.7246 6.53809 41.6104 6.65234 41.4962C6.79492 41.3392 6.86621 41.225 6.89453 41.1393C6.90918 41.0679 6.88086 41.0109 6.80957 40.9537C6.7373 40.8967 6.60938 40.8538 6.4375 40.7968L6.48047 40.5398C6.92285 40.654 7.69434 40.8253 8.82227 41.0394L8.7793 41.2963C8.37891 41.2535 8.00781 41.2678 7.63672 41.3535C7.28027 41.4248 6.96582 41.5818 6.70898 41.8245C6.45215 42.0529 6.28125 42.3812 6.20996 42.7809C6.15234 43.0521 6.16699 43.2948 6.23828 43.5375C6.30957 43.7801 6.4375 43.9657 6.60938 44.1227C6.79492 44.2797 7.00879 44.3796 7.26562 44.4368C7.67969 44.5081 8.03711 44.451 8.33691 44.2512C8.63672 44.0513 8.92188 43.7944 9.19336 43.4946C9.46387 43.1949 9.63574 42.995 9.73535 42.8951C10.1348 42.4669 10.4639 42.1385 10.7344 41.8959C11.0059 41.6532 11.3057 41.4819 11.6338 41.3677C11.9619 41.2535 12.3193 41.2393 12.7041 41.3106C13.1758 41.3962 13.5605 41.5818 13.8467 41.853C14.1318 42.1385 14.3174 42.4669 14.417 42.8665C14.5176 43.2662 14.5176 43.6945 14.4316 44.1512C14.3604 44.5224 14.2744 44.8079 14.1465 45.0363C14.0322 45.2646 13.875 45.4645 13.7041 45.6501C13.5605 45.8071 13.4893 45.9213 13.4609 46.007C13.4463 46.0783 13.4756 46.1354 13.5469 46.1925C13.6182 46.2496 13.7461 46.3067 13.918 46.3495L13.875 46.6064C13.4609 46.4923 12.5479 46.3067 11.1348 46.0497L11.1768 45.7928C11.9766 45.8642 12.6328 45.7928 13.1758 45.5502Z" fill="#292F36" fill-opacity="1.000000" fill-rule="nonzero"/>
	<path d="M10.3486 33.5165C9.94922 33.3024 9.49219 33.1026 8.97852 32.9027C9.29297 32.346 9.82031 31.3754 10.5342 29.9907C11.248 28.6204 11.748 27.6497 12.0186 27.0645C12.4902 27.3642 12.918 27.6212 13.3037 27.821C13.6465 28.0066 13.9463 28.1351 14.1748 28.235L14.0459 28.4777C13.4746 28.2493 13.0469 28.1065 12.7471 28.0637C12.4473 28.0066 12.1758 28.0637 11.9473 28.2064C11.7188 28.3492 11.4912 28.6346 11.2764 29.0629L10.9912 29.6339L16.8867 32.7029C17.1719 32.8599 17.4004 32.9313 17.5576 32.9456C17.7148 32.9598 17.8574 32.917 17.9854 32.8028C18.1143 32.6886 18.2568 32.4745 18.4287 32.1747L18.6426 32.2889C18.4287 32.6458 18.1572 33.1454 17.8145 33.8021C17.458 34.4872 17.2002 35.0154 17.0439 35.3437L16.8291 35.2295C16.9727 34.9155 17.0723 34.6728 17.0869 34.5157C17.1152 34.3445 17.0723 34.2017 16.958 34.0732C16.8438 33.9448 16.6582 33.8163 16.373 33.6593L10.4775 30.576L10.1777 31.1327C9.94922 31.5609 9.84961 31.9035 9.86328 32.1747C9.87793 32.446 9.99219 32.6886 10.2061 32.9027C10.4199 33.1169 10.7773 33.4023 11.291 33.7307L11.1621 33.9733C10.9766 33.8591 10.6914 33.7021 10.3486 33.5165Z" fill="#292F36" fill-opacity="1.000000" fill-rule="nonzero"/>
	<path d="M20.4268 17.1152C20.6689 16.8726 20.8691 16.6442 21.0117 16.4729L21.1826 16.6442C21.0977 16.7726 21.0547 16.9583 21.0684 17.1724C21.083 17.3865 21.1396 17.6862 21.2539 18.0431L22.5527 21.9115L24.0664 23.4103C24.2803 23.6102 24.4375 23.7529 24.5654 23.81C24.6943 23.8671 24.8232 23.8671 24.9512 23.81C25.0801 23.7529 25.2363 23.6245 25.4512 23.4389L25.6221 23.6102C25.3506 23.8528 24.9941 24.1954 24.5518 24.6379C24.0811 25.109 23.7383 25.4801 23.5234 25.7228L23.3525 25.5515C23.5381 25.3374 23.667 25.1804 23.7236 25.0519C23.7812 24.9234 23.7812 24.795 23.709 24.6665C23.6523 24.538 23.5098 24.3667 23.3096 24.1669L22.0537 22.925L17.2861 21.5261C17 21.4404 16.7861 21.4119 16.6436 21.4261C16.501 21.4404 16.4004 21.4833 16.3291 21.5546L16.1582 21.3834C16.3867 21.1835 16.6436 20.9551 16.9004 20.6839C17.4287 20.1415 17.8145 19.756 18.0283 19.4991L18.1992 19.6704C17.8145 20.0558 17.7285 20.3556 17.9424 20.5697C18.0283 20.6553 18.1426 20.7125 18.3135 20.7695L22.3252 22.0114L21.2686 18.8568C21.1113 18.4 20.9541 18.0859 20.7832 17.9289C20.626 17.7719 20.4551 17.7291 20.2695 17.7861C20.084 17.8433 19.8691 17.986 19.6123 18.2287L19.4414 18.0574C19.7842 17.7433 20.0977 17.4293 20.4268 17.1152Z" fill="#292F36" fill-opacity="1.000000" fill-rule="nonzero"/>
	<path d="M29.0625 11.3627C28.9775 11.4626 28.9346 11.5911 28.9629 11.7339C28.9912 11.8766 29.0625 12.0765 29.2051 12.3334L31.9609 17.4437C32.1035 17.7006 32.2178 17.8719 32.332 17.9719C32.4316 18.0718 32.5596 18.1003 32.6885 18.0861C32.8174 18.0718 33.0166 17.9861 33.2598 17.8577L34.0156 17.4437C34.4443 17.2153 34.7441 16.9726 34.9014 16.73C35.0576 16.4873 35.1152 16.2161 35.0723 15.8878C35.0293 15.5594 34.9014 15.1455 34.6729 14.603L34.915 14.4745C35.0156 14.7029 35.1582 14.9885 35.3438 15.3311C35.5576 15.7165 35.8145 16.1447 36.1289 16.6158C35.6572 16.8442 34.8584 17.2581 33.7588 17.8577C32.4463 18.5714 31.4463 19.1138 30.79 19.4992L30.6758 19.2994C30.918 19.1566 31.0898 19.0281 31.1758 18.9282C31.2607 18.8283 31.3037 18.6998 31.2754 18.5571C31.2471 18.4144 31.1758 18.2145 31.0322 17.9576L28.249 12.8473C28.1064 12.5903 27.9922 12.4191 27.8779 12.3192C27.7783 12.2192 27.6494 12.1907 27.5215 12.205C27.3779 12.2192 27.1924 12.2906 26.9355 12.4191L26.8359 12.205C27.1357 12.0765 27.5781 11.8481 28.1631 11.5198C28.7197 11.22 29.1484 10.9773 29.4482 10.7917L29.5625 10.9916C29.3193 11.1343 29.1631 11.2628 29.0625 11.3627Z" fill="#292F36" fill-opacity="1.000000" fill-rule="nonzero"/>
	<path d="M46.4482 12.2761C46.5342 12.7043 46.6631 13.1897 46.8193 13.7321C46.292 13.8177 45.4209 13.9748 44.1934 14.2175C42.7227 14.5029 41.624 14.7313 40.8672 14.9026L40.8242 14.6742C41.0957 14.6028 41.2959 14.5458 41.4102 14.4601C41.5244 14.3887 41.5957 14.2745 41.6094 14.1461C41.624 14.0033 41.6094 13.7892 41.5527 13.5037L40.4395 7.80817C40.3818 7.52271 40.3252 7.32281 40.2393 7.1944C40.1533 7.06592 40.0684 6.99451 39.9248 6.98022C39.7969 6.95172 39.583 6.966 39.3115 7.00879L39.2686 6.7804C40.0254 6.65192 41.1387 6.45209 42.5947 6.16663C43.7227 5.93823 44.5215 5.78119 44.9785 5.66699C45.0215 6.18085 45.0928 6.63763 45.1641 7.03735C45.2207 7.3371 45.2783 7.56549 45.335 7.73682L45.0781 7.79388C44.9209 7.30859 44.7783 6.95172 44.6504 6.72333C44.5215 6.49493 44.3359 6.35217 44.1221 6.28082C43.8936 6.20941 43.5938 6.20941 43.1797 6.29504L42.2236 6.48065C41.9521 6.53772 41.752 6.59485 41.6377 6.6662C41.5244 6.73761 41.4521 6.83752 41.4238 6.98022C41.4102 7.12299 41.4238 7.3371 41.4814 7.62262L42.0088 10.3348L42.7656 10.1777C43.1514 10.1064 43.3799 9.93506 43.4648 9.67816C43.5508 9.4212 43.5791 9.17853 43.5654 8.93585C43.5508 8.69318 43.5371 8.53619 43.5371 8.46478L43.7939 8.40771C43.8359 8.79309 43.8936 9.14996 43.9648 9.49255L44.0791 10.035C44.1504 10.4204 44.2793 10.9628 44.4648 11.648L44.208 11.7051C44.1934 11.648 44.1357 11.4767 44.0361 11.1627C43.9365 10.8486 43.7939 10.6345 43.5791 10.506C43.3652 10.3776 43.123 10.3491 42.8086 10.4061L42.0518 10.5489L42.5947 13.3039C42.6514 13.5894 42.709 13.7892 42.7803 13.9177C42.8516 14.0319 42.9512 14.1033 43.0938 14.1318C43.2227 14.1461 43.4365 14.1318 43.708 14.0747L44.5498 13.9034C45.0215 13.8035 45.3779 13.675 45.6064 13.5037C45.835 13.3324 45.9629 13.0897 46.0205 12.79C46.0771 12.4902 46.0771 12.062 46.0352 11.5052L46.292 11.4482C46.334 11.6623 46.377 11.9335 46.4482 12.2761Z" fill="#292F36" fill-opacity="1.000000" fill-rule="nonzero"/>
	<path d="M36.8281 66.7905C36.1719 65.9055 35.6006 64.9348 35.1006 63.8642C34.6016 62.7936 34.2012 61.7087 33.9014 60.5953C33.2451 55.6992 33.2305 50.9457 33.8447 46.335C34.459 41.7244 35.458 37.1851 36.8281 32.7029C37.0566 32.2032 37.5557 31.9606 38.3271 31.9606C39.0977 31.9606 39.8545 32.1319 40.625 32.4745C41.3955 32.8171 42.0244 33.2739 42.5234 33.8448C43.0234 34.4158 43.1377 35.0153 42.8662 35.6292C42.4385 36.5427 42.0244 37.7846 41.6104 39.3262C41.1963 40.8821 40.7822 42.5951 40.4111 44.4651C40.0254 46.335 39.6973 48.3049 39.4121 50.3462C39.126 52.3875 38.9121 54.3574 38.7842 56.2273C38.6553 58.0973 38.627 59.796 38.6982 61.309C38.7695 62.8221 38.998 64.0212 39.3828 64.892C41.1816 62.4796 42.8232 59.9815 44.3223 57.3978C45.8213 54.8141 47.2197 52.2019 48.5332 49.5325C49.8467 46.8775 51.1025 44.1938 52.2871 41.4674C53.4727 38.7552 54.6426 36.0717 55.7852 33.4308C56.3555 32.0891 56.9268 30.6759 57.4834 29.1913C58.04 27.6925 58.7676 26.4221 59.6963 25.3515C60.0811 25.0089 60.3809 24.8947 60.5811 25.0089C60.7949 25.1231 60.9375 25.3372 61.0088 25.6655C61.0801 25.9938 61.123 26.3364 61.123 26.6933C61.123 27.0502 61.123 27.3356 61.123 27.5212C60.8525 29.277 60.624 31.0185 60.4385 32.7457C60.2529 34.4729 59.8389 36.1287 59.2393 37.7418C58.2402 40.2684 57.2266 42.7664 56.1699 45.2645C55.1143 47.7482 53.9863 50.2034 52.7871 52.6158C51.5879 55.0283 50.2744 57.3693 48.8896 59.6389C47.4912 61.9229 45.9785 64.0926 44.3223 66.1481C43.0234 67.7897 41.7246 68.6604 40.4541 68.7603C39.126 68.8745 37.9414 68.2036 36.8281 66.7905Z" fill="#292F36" fill-opacity="1.000000" fill-rule="nonzero"/>
	<path d="M35.1006 63.8642C34.6016 62.7936 34.2012 61.7087 33.9014 60.5953C33.2451 55.6992 33.2305 50.9457 33.8447 46.335C34.459 41.7244 35.458 37.1851 36.8281 32.7029C37.0566 32.2032 37.5557 31.9606 38.3271 31.9606C39.0977 31.9606 39.8545 32.1319 40.625 32.4745C41.3955 32.8171 42.0244 33.2739 42.5234 33.8448C43.0234 34.4158 43.1377 35.0153 42.8662 35.6292C42.4385 36.5427 42.0244 37.7846 41.6104 39.3262C41.1963 40.8821 40.7822 42.5951 40.4111 44.4651C40.0254 46.335 39.6973 48.3049 39.4121 50.3462C39.126 52.3875 38.9121 54.3574 38.7842 56.2273C38.6553 58.0973 38.627 59.796 38.6982 61.309C38.7695 62.8221 38.998 64.0212 39.3828 64.892C41.1816 62.4796 42.8232 59.9815 44.3223 57.3978C45.8213 54.8141 47.2197 52.2019 48.5332 49.5325C49.8467 46.8775 51.1025 44.1938 52.2871 41.4674C53.4727 38.7552 54.6426 36.0717 55.7852 33.4308C56.3555 32.0891 56.9268 30.6759 57.4834 29.1913C58.04 27.6925 58.7676 26.4221 59.6963 25.3515C60.0811 25.0089 60.3809 24.8947 60.5811 25.0089C60.7949 25.1231 60.9375 25.3372 61.0088 25.6655C61.0801 25.9938 61.123 26.3364 61.123 26.6933C61.123 27.0502 61.123 27.3356 61.123 27.5212C60.8525 29.277 60.624 31.0185 60.4385 32.7457C60.2529 34.4729 59.8389 36.1287 59.2393 37.7418C58.2402 40.2684 57.2266 42.7664 56.1699 45.2645C55.1143 47.7482 53.9863 50.2034 52.7871 52.6158C51.5879 55.0283 50.2744 57.3693 48.8896 59.6389C47.4912 61.9229 45.9785 64.0926 44.3223 66.1481C43.0234 67.7897 41.7246 68.6604 40.4541 68.7603C39.126 68.8745 37.9414 68.2036 36.8281 66.7905C36.1719 65.9055 35.6006 64.9348 35.1006 63.8642Z" stroke="#FFFFFF" stroke-opacity="1.000000" stroke-width="1.000000"/>
	<path d="M60.4668 60.3098C59.6963 59.2392 58.9395 58.1543 58.1973 57.0409C57.4551 55.9275 57.084 54.7142 57.084 53.3724C57.084 51.8878 57.5117 50.4746 58.3682 49.1471C59.2246 47.8339 60.21 46.7632 61.3232 45.9639C61.7803 45.6641 62.251 45.4072 62.7227 45.2216C63.1934 45.036 63.707 45.0503 64.25 45.2787C64.4775 45.3929 64.7207 45.4785 64.9629 45.5356C65.2061 45.5927 65.4346 45.6641 65.6201 45.7355C65.8057 45.8068 66.0195 45.921 66.248 46.0781C66.4766 46.2351 66.5908 46.4349 66.5908 46.7061C66.5908 47.7767 66.6191 48.6475 66.6758 49.3184C66.7334 49.9893 66.8193 50.5602 66.9336 51.0456C67.0469 51.5309 67.1611 51.9449 67.2754 52.3018C67.3896 52.6729 67.5039 53.0583 67.6182 53.4723C67.6895 53.8577 67.6758 54.186 67.5615 54.4429C67.4473 54.7142 67.1611 54.7427 66.7051 54.5571C65.8623 54.2574 65.2344 53.6436 64.835 52.7157C64.4355 51.7879 64.1357 50.96 63.9502 50.1891C63.9072 50.0321 63.8213 49.7751 63.6641 49.3898C63.5068 49.0043 63.4219 48.7332 63.3789 48.5904C63.0791 48.519 62.708 48.619 62.2939 48.9044C61.8799 49.1899 61.4941 49.5896 61.1807 50.075C60.8525 50.5745 60.6377 51.1455 60.5527 51.8021C60.4521 52.4588 60.5811 53.1011 60.9238 53.7578C61.0811 53.9861 61.2949 54.2717 61.5801 54.5857C61.8652 54.914 62.1514 55.2423 62.4365 55.5849C62.7227 55.9275 63.0078 56.2701 63.293 56.5841C63.5791 56.8981 63.8213 57.1694 64.0068 57.3549C64.2354 57.5833 64.3926 57.7118 64.4639 57.7261C64.5352 57.7404 64.7354 57.6975 65.0342 57.5833C65.4199 57.3978 66.0049 57.1408 66.79 56.8411C67.5752 56.5413 68.4033 56.2272 69.2598 55.9275C70.1162 55.6277 70.9443 55.3708 71.7295 55.1567C72.5146 54.9426 73.1143 54.8427 73.542 54.8427C73.8135 54.8427 73.999 54.9426 74.1133 55.1281C74.2275 55.2423 74.2129 55.3994 74.0566 55.5849C73.8994 55.7704 73.6992 55.9703 73.457 56.1559C73.2139 56.3414 72.9424 56.5128 72.6855 56.6698C72.415 56.8268 72.2432 56.9124 72.1719 56.9553C71.5156 57.3407 70.7012 57.7689 69.7021 58.2543C68.7031 58.7253 67.8467 59.1964 67.1191 59.6531C67.0469 59.7245 66.9043 59.8102 66.6904 59.8815C66.4766 59.9529 66.3193 60.0386 66.2051 60.1099C66.6621 61.1377 66.9902 62.037 67.1758 62.7793C67.3613 63.5215 67.4326 64.2353 67.376 64.9348C67.3184 65.6199 67.1758 66.3193 66.9473 67.0331C66.7188 67.7468 66.4053 68.5604 66.0342 69.474C65.4912 70.3591 64.9492 71.2012 64.3926 72.0006C63.8359 72.8 63.2217 73.528 62.5225 74.1846C61.8369 74.8412 61.0811 75.3552 60.2812 75.7263C59.4814 76.1117 58.5967 76.2972 57.6406 76.2972C57.0977 76.2972 56.584 76.2259 56.085 76.0974C55.585 75.9689 55.1709 75.6835 54.8281 75.2695C53.9434 74.3131 53.458 73.2711 53.3438 72.1434C53.2295 71.0157 53.3291 69.9023 53.6289 68.7888C53.8574 68.1037 54.1436 67.4756 54.4854 66.8903C55.3281 65.4343 56.2559 64.2067 57.2695 63.1932C58.2969 62.194 59.3535 61.2233 60.4668 60.3098ZM62.4229 62.8935C61.9941 63.3217 61.4229 63.9213 60.6953 64.7064C59.9668 65.4915 59.2959 66.3479 58.6543 67.2615C58.0254 68.175 57.5117 69.0886 57.1123 69.9879C56.7129 70.8872 56.6123 71.658 56.7979 72.3146C57.5693 71.972 58.3545 71.4011 59.1533 70.616C59.9531 69.8309 60.667 68.9744 61.2803 68.0323C61.8945 67.0902 62.3223 66.1624 62.5654 65.2488C62.8076 64.3209 62.7646 63.5358 62.4229 62.8935Z" fill="#292F36" fill-opacity="1.000000" fill-rule="nonzero"/>
	<path d="M58.1973 57.0409C57.4551 55.9275 57.084 54.7142 57.084 53.3724C57.084 51.8878 57.5117 50.4746 58.3682 49.1471C59.2246 47.8338 60.21 46.7632 61.3232 45.9639C61.7803 45.6641 62.251 45.4072 62.7227 45.2216C63.1934 45.036 63.707 45.0503 64.25 45.2787C64.4775 45.3929 64.7207 45.4785 64.9629 45.5356C65.2061 45.5927 65.4346 45.6641 65.6201 45.7355C65.8057 45.8068 66.0195 45.921 66.248 46.0781C66.4766 46.2351 66.5908 46.4349 66.5908 46.7061C66.5908 47.7767 66.6191 48.6475 66.6758 49.3184C66.7334 49.9893 66.8193 50.5602 66.9336 51.0456C67.0469 51.5309 67.1611 51.9449 67.2754 52.3018C67.3896 52.6729 67.5039 53.0583 67.6182 53.4723C67.6895 53.8577 67.6758 54.186 67.5615 54.4429C67.4473 54.7142 67.1611 54.7427 66.7051 54.5571C65.8623 54.2574 65.2344 53.6436 64.835 52.7157C64.4355 51.7879 64.1357 50.96 63.9502 50.1891C63.9072 50.0321 63.8213 49.7751 63.6641 49.3898C63.5068 49.0043 63.4219 48.7332 63.3789 48.5904C63.0791 48.519 62.708 48.619 62.2939 48.9044C61.8799 49.1899 61.4941 49.5896 61.1807 50.075C60.8525 50.5745 60.6377 51.1455 60.5527 51.8021C60.4521 52.4588 60.5811 53.1011 60.9238 53.7578C61.0811 53.9861 61.2949 54.2717 61.5801 54.5857C61.8652 54.914 62.1514 55.2423 62.4365 55.5849C62.7227 55.9275 63.0078 56.2701 63.293 56.5841C63.5791 56.8981 63.8213 57.1694 64.0068 57.3549C64.2354 57.5833 64.3926 57.7118 64.4639 57.7261C64.5352 57.7404 64.7354 57.6975 65.0342 57.5833C65.4199 57.3978 66.0049 57.1408 66.79 56.8411C67.5752 56.5413 68.4033 56.2272 69.2598 55.9275C70.1162 55.6277 70.9443 55.3708 71.7295 55.1567C72.5146 54.9426 73.1143 54.8427 73.542 54.8427C73.8135 54.8427 73.999 54.9426 74.1133 55.1281C74.2275 55.2423 74.2129 55.3994 74.0566 55.5849C73.8994 55.7704 73.6992 55.9703 73.457 56.1559C73.2139 56.3414 72.9424 56.5128 72.6855 56.6698C72.415 56.8268 72.2432 56.9124 72.1719 56.9553C71.5156 57.3407 70.7012 57.7689 69.7021 58.2543C68.7031 58.7253 67.8467 59.1964 67.1191 59.6531C67.0469 59.7245 66.9043 59.8102 66.6904 59.8815C66.4766 59.9529 66.3193 60.0386 66.2051 60.1099C66.6621 61.1377 66.9902 62.037 67.1758 62.7793C67.3613 63.5215 67.4326 64.2353 67.376 64.9348C67.3184 65.6199 67.1758 66.3193 66.9473 67.0331C66.7188 67.7468 66.4053 68.5604 66.0342 69.474C65.4912 70.3591 64.9492 71.2012 64.3926 72.0006C63.8359 72.8 63.2217 73.528 62.5225 74.1846C61.8369 74.8412 61.0811 75.3552 60.2812 75.7263C59.4814 76.1117 58.5967 76.2972 57.6406 76.2972C57.0977 76.2972 56.584 76.2259 56.085 76.0974C55.585 75.9689 55.1709 75.6835 54.8281 75.2695C53.9434 74.3131 53.458 73.2711 53.3438 72.1434C53.2295 71.0157 53.3291 69.9023 53.6289 68.7888C53.8574 68.1037 54.1436 67.4756 54.4854 66.8903C55.3281 65.4343 56.2559 64.2067 57.2695 63.1932C58.2969 62.194 59.3535 61.2233 60.4668 60.3098C59.6963 59.2392 58.9395 58.1543 58.1973 57.0409ZM60.6953 64.7064C59.9668 65.4915 59.2959 66.3479 58.6543 67.2615C58.0254 68.175 57.5117 69.0886 57.1123 69.9879C56.7129 70.8872 56.6123 71.658 56.7979 72.3146C57.5693 71.972 58.3545 71.4011 59.1533 70.616C59.9531 69.8309 60.667 68.9744 61.2803 68.0323C61.8945 67.0902 62.3223 66.1624 62.5654 65.2488C62.8076 64.3209 62.7646 63.5358 62.4229 62.8935C61.9941 63.3217 61.4229 63.9213 60.6953 64.7064Z" stroke="#FFFFFF" stroke-opacity="1.000000" stroke-width="1.000000"/>
	<path d="M51.1592 83.5488C33.3018 83.5488 18.7705 69.0173 18.7705 51.1599C18.7705 33.3025 33.3018 18.771 51.1592 18.771C69.0166 18.771 83.5488 33.3025 83.5488 51.1599C83.5488 69.0173 69.0166 83.5488 51.1592 83.5488ZM51.1592 20.1984C34.0869 20.1984 20.1982 34.0876 20.1982 51.1599C20.1982 68.2322 34.0869 82.1214 51.1592 82.1214C68.2314 82.1214 82.1211 68.2322 82.1211 51.1599C82.1211 34.0876 68.2314 20.1984 51.1592 20.1984Z" fill="#292F36" fill-opacity="1.000000" fill-rule="nonzero"/>
</svg>
