<svg width="23.000000" height="23.000000" viewBox="0 0 23 23" fill="none" xmlns="http://www.w3.org/2000/svg" xmlns:xlink="http://www.w3.org/1999/xlink">
	<defs/>
	<path d="M11.5 1C5.70117 1 1 5.70117 1 11.5C1 17.2988 5.70117 22 11.5 22C17.2988 22 22 17.2988 22 11.5C22 5.70117 17.2988 1 11.5 1Z" stroke="#CDA274" stroke-opacity="1.000000" stroke-width="2.000000"/>
	<path d="M21.4473 7.33105C20.6348 7.33618 20.7148 8.84399 19.7026 8.13257C19.3267 7.8689 19.0952 7.4856 18.623 7.36914C18.2109 7.26733 17.7886 7.37329 17.3813 7.44385C16.9185 7.52441 16.3691 7.56055 16.0181 7.91309C15.6787 8.25269 15.499 8.70801 15.1377 9.04956C14.439 9.71118 14.144 10.4333 14.5967 11.3687C15.0317 12.2678 15.9419 12.7559 16.9238 12.6919C17.8887 12.6272 18.8911 12.0642 18.8633 13.4744C18.853 13.9731 18.9565 14.3193 19.1089 14.783C19.25 15.2104 19.2407 15.6245 19.2729 16.0659C19.3325 16.8901 19.4834 17.8145 19.8901 18.5427L20.6489 17.4658C20.7427 17.3325 20.9385 17.1458 20.9849 16.9885C21.0674 16.7102 20.9053 16.2317 20.8862 15.9197C20.8677 15.6079 20.877 15.2917 20.8291 14.9797C20.7622 14.5427 20.5054 14.1331 20.4702 13.7009C20.4048 12.8965 20.5508 12.2542 19.9346 11.5813C19.3398 10.9326 18.4673 10.7769 17.6343 10.9087C17.2144 10.9749 15.5239 11.2466 16.2021 10.281C16.3364 10.0913 16.5708 9.93555 16.7217 9.75488C16.8525 9.59766 16.9663 9.30859 17.1201 9.18604C17.2739 9.06323 17.9805 8.92236 18.1826 8.98486C18.3848 9.04761 18.5962 9.34106 18.7715 9.47144C19.0957 9.71729 19.4746 9.88062 19.875 9.94775C20.5659 10.0496 22.0112 9.64551 22 8.75391C21.998 8.32642 21.6035 7.73096 21.4473 7.33105ZM13.4478 14.6672C13.1777 13.5254 11.6353 13.1438 10.8037 12.5244C10.3252 12.1682 9.8999 11.6179 9.27197 11.5732C8.98242 11.5522 8.74023 11.6155 8.45361 11.5405C8.19043 11.4724 7.98389 11.3301 7.70361 11.3672C7.17969 11.4363 6.84961 11.9993 6.28711 11.9229C5.75293 11.8506 5.20312 11.2227 5.08154 10.7112C4.92578 10.0537 5.44287 9.84033 5.99707 9.78198C6.22803 9.75732 6.48779 9.73096 6.70996 9.81592C7.00244 9.92529 7.14062 10.2134 7.40283 10.3589C7.89551 10.6301 7.99512 10.1965 7.91943 9.75684C7.80664 9.09839 7.67529 8.82983 8.25928 8.37671C8.66406 8.06421 9.00977 7.83838 8.94531 7.2771C8.90674 6.94727 8.72705 6.7981 8.89453 6.46997C9.02148 6.21997 9.37012 5.99463 9.59717 5.84546C10.1836 5.46069 12.1094 5.48926 11.3228 4.41235C11.0913 4.09644 10.665 3.53149 10.2603 3.4541C9.75391 3.35791 9.5293 3.92603 9.17676 4.17627C8.8125 4.4353 8.10303 4.72949 7.73828 4.32886C7.24756 3.79004 8.06396 3.61304 8.24463 3.23682C8.4248 2.86084 7.82617 2.1499 7.50537 1.96973L5.99707 3.6709C5.95361 3.95581 5.96875 4.24658 6.0415 4.52563C6.11377 4.80444 6.24219 5.06519 6.41895 5.29224C6.71924 5.68066 7.19678 5.80542 7.21826 6.33569C7.23975 6.84448 7.16064 7.10498 6.82959 7.46289C6.68652 7.61548 6.58545 7.83228 6.43994 7.97534C6.26123 8.1499 6.32764 8.09644 6.04883 8.14429C5.52441 8.2334 5.07812 8.37061 4.57178 8.51123C3.72803 8.74585 3.6499 7.35889 3.26562 6.81494L2.00049 7.84253C1.98682 8.01099 2.20801 8.3208 2.26807 8.50391C2.61377 9.55078 3.31104 10.3606 3.76123 11.3621C4.23535 12.4226 5.5083 12.1284 6.07031 13.0576C6.56934 13.8821 6.03662 14.9258 6.40967 15.7891C6.68115 16.4155 7.3208 16.5522 7.76172 17.0103C8.2124 17.4729 8.20312 18.106 8.27197 18.708C8.34912 19.4163 8.4751 20.1182 8.64844 20.8088C8.70996 21.0474 8.76611 21.363 8.92822 21.5601C9.03955 21.6953 9.42188 21.8118 9.26758 21.8567C9.48291 21.8923 9.86719 22.0947 10.0464 21.9463C10.2832 21.7507 10.2202 21.1492 10.2612 20.8774C10.3843 20.0684 10.7866 19.2771 11.3301 18.6714C11.8672 18.074 12.6025 17.6694 13.0562 16.9919C13.4976 16.3315 13.6309 15.4404 13.4478 14.6672ZM11.7583 16.0068C11.4546 16.5518 10.7788 16.9167 10.3442 17.3499C10.2261 17.4673 9.9751 17.8745 9.82764 17.7864C9.72168 17.7234 9.68604 17.1951 9.64697 17.074C9.4458 16.4641 9.06201 15.9316 8.54834 15.5498C8.39014 15.4292 7.99756 15.2725 7.90674 15.1069C7.80566 14.9275 7.89697 14.5034 7.90039 14.3081C7.90576 14.0232 7.77686 13.5493 7.84668 13.2903C7.92773 12.9915 7.77197 13.1716 8.0376 13.1125C8.17773 13.0811 8.75635 13.1833 8.93115 13.22C9.20801 13.2781 9.36084 13.4517 9.57959 13.6272C10.1543 14.0908 10.7871 14.4495 11.4312 14.8047C11.9302 15.0825 12.0771 15.4343 11.7583 16.0068ZM8.23682 1.98486C8.47656 2.22046 8.70215 2.49951 9.06006 2.52295C9.39844 2.54565 9.71777 2.36157 10.0132 2.59302C10.3408 2.84766 10.5771 3.16968 11.0122 3.24902C11.4336 3.32593 11.8789 3.07861 11.9834 2.64551C12.0845 2.23291 11.8662 1.78394 11.8535 1.36963C11.8535 1.31226 11.8843 1.05664 11.8447 1.01343C11.8154 0.980957 11.5703 1.01758 11.5332 1.01855C11.2588 1.02661 10.9854 1.04565 10.7124 1.07544C9.71777 1.18384 8.74365 1.43481 7.81934 1.82104C7.94238 1.90649 8.09668 1.94067 8.23682 1.98486ZM16.936 4.84399C17.3657 4.84399 17.8018 4.65063 17.6631 4.15088C17.5469 3.73193 17.3481 3.27759 16.8657 3.50342C16.5586 3.64697 16.1235 4.01245 16.0874 4.37476C16.0464 4.78589 16.6494 4.84399 16.936 4.84399ZM16.5928 7.03076C17.0317 7.29492 17.6821 7.17065 18.0132 6.7937C18.2715 6.49854 18.4238 5.98584 18.8887 5.98657C19.0938 5.98608 19.29 6.06665 19.4365 6.21094C19.6284 6.41089 19.5908 6.59863 19.6318 6.84912C19.7231 7.41138 20.3228 6.8811 20.479 6.66333C20.5801 6.52124 20.7173 6.31055 20.6714 6.12598C20.6289 5.95337 20.4287 5.76978 20.3394 5.61133C20.0796 5.15332 19.8652 4.62061 19.4756 4.25049C19.1011 3.89429 18.6401 3.93555 18.2842 4.30566C17.9927 4.61084 17.6543 4.85254 17.4551 5.22412C17.3145 5.48511 17.1562 5.60986 16.8711 5.67749C16.7144 5.7146 16.5352 5.72852 16.4038 5.83423C16.0376 6.12427 16.2461 6.82104 16.5928 7.03076Z" fill="#CDA274" fill-opacity="1.000000" fill-rule="nonzero"/>
</svg>
