<svg width="163.379883" height="42.776001" viewBox="0 0 163.38 42.776" fill="none" xmlns="http://www.w3.org/2000/svg" xmlns:xlink="http://www.w3.org/1999/xlink">
	<desc>
			Created with Pixso.
	</desc>
	<defs/>
	<path d="M34.7969 42.776L7.97852 42.776C3.57129 42.776 0 39.2043 0 34.7971L0 7.97888C0 3.57172 3.57129 0 7.97852 0L34.7969 0C39.2041 0 42.7764 3.57172 42.7764 7.97888L42.7764 34.7971C42.7764 39.2043 39.2041 42.776 34.7969 42.776Z" fill="#292F36" fill-opacity="1.000000" fill-rule="nonzero"/>
	<path d="M29.0947 21.7816C29.8574 22.738 30.2451 23.8519 30.2451 25.1111C30.2451 26.9636 29.627 28.4165 28.3926 29.4456C27.1572 30.4748 25.3896 31.0075 23.0889 31.0075L13.04 31.0075L13.04 9.39551L22.8467 9.39551C25.0508 9.39551 26.7461 9.87982 27.9443 10.8363C29.1436 11.7928 29.748 13.1609 29.748 14.9286C29.748 16.2363 29.3975 17.3138 28.707 18.1856C28.0176 19.0574 27.1094 19.6143 25.9834 19.8807C27.3027 20.1954 28.332 20.8251 29.0947 21.7816ZM18.2588 18.234L21.6846 18.234C23.501 18.234 24.4092 17.4592 24.4092 15.9094C24.4092 14.3596 23.4766 13.5847 21.624 13.5847L18.2588 13.5847L18.2588 18.234ZM24.8936 24.3847C24.8936 23.6098 24.6387 23.0044 24.1309 22.5685C23.6221 22.1327 22.8955 21.9147 21.9629 21.9147L18.2705 21.9147L18.2705 26.7699L22 26.7699C23.9248 26.7578 24.8936 25.9708 24.8936 24.3847Z" fill="#FFFFFF" fill-opacity="1.000000" fill-rule="nonzero"/>
	<path d="M62.8867 22.8472L67.5605 31.0078L67.5605 31.0198L73.3359 31.0198L68.2021 22.5204C69.8604 22.1087 71.1074 21.358 71.9795 20.2562C72.8389 19.1544 73.2754 17.8226 73.2754 16.2487C73.2754 14.9168 72.9844 13.7424 72.3916 12.7132C71.7979 11.6841 70.9141 10.8729 69.7275 10.2796C68.5527 9.68634 67.1006 9.39575 65.3926 9.39575L56.4697 9.39575L56.4697 31.0078L61.7002 31.0078L61.7002 22.8472L62.8867 22.8472ZM132.699 31.0078L127.469 31.0078L118.727 17.7379L118.727 31.0078L113.496 31.0078L113.496 9.39575L118.727 9.39575L127.469 22.7867L127.469 9.39575L132.699 9.39575L132.699 31.0078ZM158.112 29.6396C159.808 28.7195 161.115 27.436 162.023 25.8015C162.919 24.1549 163.38 22.2783 163.38 20.1715C163.38 18.0406 162.932 16.176 162.023 14.5415C161.115 12.907 159.82 11.6478 158.125 10.7518C156.441 9.8559 154.432 9.4079 152.107 9.4079L143.947 9.4079L143.947 31.0199L152.107 31.0199C154.408 31.0199 156.405 30.5598 158.112 29.6396ZM88.833 27.0728L96.9336 27.0728L98.2891 31.0199L103.847 31.0199L95.9287 9.56525L89.9111 9.56525L81.9922 31.0199L87.4893 31.0199L88.833 27.0728ZM64.9326 19.2755L61.7002 19.2755L61.7002 13.7908L64.9326 13.7908C65.9502 13.7908 66.7129 14.045 67.209 14.5294C67.7051 15.0258 67.96 15.6917 67.96 16.5513C67.96 17.4473 67.7051 18.1253 67.2217 18.5854C66.7373 19.0455 65.9746 19.2755 64.9326 19.2755ZM158.089 20.1594C158.089 22.1087 157.52 23.6343 156.394 24.7119C155.268 25.8015 153.682 26.3343 151.635 26.3343L149.165 26.3343L149.165 13.9846L151.635 13.9846C153.682 13.9846 155.268 14.5294 156.394 15.607C157.52 16.6846 158.089 18.198 158.089 20.1594ZM92.9014 15.1469L95.5889 23.0894L90.1768 23.0894L92.9014 15.1469Z" fill="#292F36" fill-opacity="1.000000" fill-rule="evenodd"/>
</svg>
