<svg width="116.708984" height="47.163147" viewBox="0 0 116.709 47.1631" fill="none" xmlns="http://www.w3.org/2000/svg" xmlns:xlink="http://www.w3.org/1999/xlink">
	<desc>
			Created with Pixso.
	</desc>
	<defs/>
	<path d="M0 29.2057L0 0L17.2012 0L17.2012 29.1914L0 29.1914L0 29.2057ZM15.1172 22.411L15.5596 19.185L13.9609 19.028L13.4756 21.5117C12.4756 22.0114 11.248 22.254 9.77832 22.254C7.7793 22.254 6.19531 21.6259 5.03906 20.3555C3.86816 19.0851 3.29785 17.4149 3.29785 15.3309C3.29785 13.3039 3.86816 11.6337 4.99609 10.3205C6.12402 9.00726 7.6084 8.35059 9.4502 8.35059C10.3916 8.35059 11.1914 8.46478 11.834 8.67889C12.4756 8.89301 13.0615 9.17853 13.6182 9.54968L14.0889 12.0049L15.7158 11.8478L15.2451 8.62183C14.5605 8.03656 13.7461 7.56549 12.8047 7.1944C11.8623 6.83752 10.6914 6.65192 9.30664 6.65192C7.66504 6.65192 6.25195 7.05164 5.06738 7.8653C3.88281 8.67889 2.95508 9.74951 2.29785 11.077C1.6416 12.4188 1.31348 13.8606 1.31348 15.4022C1.31348 17.8431 2.06934 19.8844 3.58301 21.5117C5.0957 23.139 7.06543 23.9527 9.50684 23.9527C11.9053 23.9527 13.7754 23.4388 15.1172 22.411Z" fill="#292F36" fill-opacity="1.000000" fill-rule="nonzero"/>
	<path d="M23.0391 29.2057L23.0391 0L30.4336 0L30.4336 29.1914L23.0391 29.1914L23.0391 29.2057ZM23.8242 23.6957L29.6621 23.6957L29.6621 22.2255L27.6494 22.2255L27.6494 5.92395L23.7959 5.92395L23.7959 7.39423L25.8369 7.39423L25.8369 22.2255L23.8242 22.2255L23.8242 23.6957Z" fill="#292F36" fill-opacity="1.000000" fill-rule="nonzero"/>
	<path d="M36.2715 29.2057L36.2715 0L49.2617 0L49.2617 29.1914L36.2715 29.1914L36.2715 29.2057ZM38.627 13.0755L38.2129 15.7305L39.7119 15.9161L40.1543 13.9319C40.7969 13.6179 41.5244 13.4609 42.3809 13.4609C43.4092 13.4609 44.1084 13.7178 44.4648 14.2317C44.8223 14.7456 44.9932 15.4165 44.9932 16.2444L44.9932 17.2722C44.6797 17.2437 44.3506 17.2151 43.9941 17.2008C43.6367 17.1865 43.2949 17.1722 42.9521 17.1722C41.667 17.1722 40.4395 17.4006 39.2979 17.8574C38.1553 18.3142 37.585 19.2706 37.585 20.7123C37.585 21.9399 37.9697 22.7822 38.7549 23.239C39.54 23.71 40.3115 23.9384 41.0674 23.9384C41.9951 23.9384 42.7949 23.6957 43.4512 23.2104C44.1084 22.725 44.6221 22.1826 44.9932 21.5546L44.9932 21.6116C45.0215 23.1676 45.7217 23.9384 47.0918 23.9384C47.6201 23.9384 48.1191 23.8099 48.5908 23.553L48.5615 22.3682C48.333 22.4681 48.0762 22.5252 47.791 22.5252C47.1348 22.5252 46.8057 22.1113 46.8057 21.2833L46.8057 15.8162C46.8057 13.2468 45.4355 11.962 42.6953 11.962C41.9385 11.962 41.2246 12.0477 40.5537 12.219C39.8691 12.4046 39.2266 12.6901 38.627 13.0755ZM44.9785 19.3848C44.9072 20.327 44.5225 21.0835 43.8223 21.6259C43.123 22.1826 42.3809 22.4539 41.582 22.4539C41.082 22.4539 40.5967 22.3111 40.1396 22.0399C39.6689 21.7687 39.4404 21.2548 39.4404 20.5125C39.4404 19.6132 39.7969 19.0422 40.4824 18.771C41.1816 18.4998 41.9531 18.3713 42.8232 18.3713C43.209 18.3713 43.5801 18.3856 43.9365 18.4284C44.2939 18.457 44.6504 18.4855 44.9648 18.4998L44.9648 19.3848L44.9785 19.3848Z" fill="#292F36" fill-opacity="1.000000" fill-rule="nonzero"/>
	<path d="M55.1133 29.2057L55.1133 0L66.918 0L66.918 29.1914L55.1133 29.1914L55.1133 29.2057ZM65.6768 20.3698C65.6768 19.4562 65.4336 18.7853 64.9482 18.3428C64.4629 17.9003 63.8779 17.6005 63.1641 17.4292C62.4502 17.2579 61.751 17.1152 61.0518 17.001C60.3516 16.8868 59.7529 16.7012 59.2676 16.4586C58.7822 16.2159 58.5391 15.7877 58.5391 15.1738C58.5391 14.5886 58.7676 14.1603 59.2383 13.8749C59.71 13.5894 60.2949 13.4609 61.0225 13.4609C61.8652 13.4609 62.6504 13.6465 63.3779 14.0319L63.6641 15.8876L65.1621 15.702L64.877 13.0184C64.3916 12.7186 63.8066 12.476 63.1074 12.2761C62.4072 12.0762 61.665 11.962 60.8662 11.962C59.8096 11.962 58.8389 12.219 57.9395 12.7186C57.04 13.2182 56.5977 14.0747 56.5977 15.3023C56.5977 16.2016 56.8408 16.8582 57.3262 17.2722C57.8115 17.7004 58.4111 17.9859 59.1387 18.1572C59.8672 18.3285 60.5801 18.4713 61.2939 18.5997C62.0078 18.7139 62.6074 18.9138 63.0928 19.1707C63.5781 19.4277 63.8203 19.8702 63.8203 20.5125C63.8203 21.1691 63.5068 21.6545 62.8789 21.9685C62.251 22.2825 61.5371 22.4396 60.7236 22.4396C59.8096 22.4396 58.9531 22.254 58.168 21.8686L58.2393 20.3412L56.7979 20.1842L56.4404 22.7964C56.9404 23.1248 57.5967 23.3959 58.3965 23.6101C59.1953 23.8242 59.9951 23.9384 60.8086 23.9384C62.1934 23.9384 63.3496 23.6243 64.2773 22.982C65.2051 22.3682 65.6768 21.4832 65.6768 20.3698Z" fill="#292F36" fill-opacity="1.000000" fill-rule="nonzero"/>
	<path d="M72.7568 29.2057L72.7568 0L84.5615 0L84.5615 29.1914L72.7568 29.1914L72.7568 29.2057ZM83.3203 20.3698C83.3203 19.4562 83.0771 18.7853 82.5918 18.3428C82.1064 17.9003 81.5215 17.6005 80.8076 17.4292C80.0938 17.2579 79.3945 17.1152 78.6953 17.001C77.9951 16.8868 77.3965 16.7012 76.9111 16.4586C76.4258 16.2159 76.1826 15.7877 76.1826 15.1738C76.1826 14.5886 76.4111 14.1603 76.8818 13.8749C77.3535 13.5894 77.9385 13.4609 78.666 13.4609C79.5088 13.4609 80.2939 13.6465 81.0215 14.0319L81.3076 15.8876L82.8057 15.702L82.5205 13.0184C82.0352 12.7186 81.4502 12.476 80.751 12.2761C80.0508 12.0762 79.3086 11.962 78.5098 11.962C77.4531 11.962 76.4824 12.219 75.583 12.7186C74.6836 13.2182 74.2412 14.0747 74.2412 15.3023C74.2412 16.2016 74.4844 16.8582 74.9697 17.2722C75.4551 17.7004 76.0547 17.9859 76.7822 18.1572C77.5107 18.3285 78.2236 18.4713 78.9375 18.5997C79.6514 18.7139 80.251 18.9138 80.7363 19.1707C81.2217 19.4277 81.4639 19.8702 81.4639 20.5125C81.4639 21.1691 81.1504 21.6545 80.5225 21.9685C79.8945 22.2825 79.1807 22.4396 78.3672 22.4396C77.4531 22.4396 76.5967 22.254 75.8115 21.8686L75.8828 20.3412L74.4414 20.1842L74.084 22.7964C74.584 23.1248 75.2402 23.3959 76.04 23.6101C76.8389 23.8242 77.6387 23.9384 78.4521 23.9384C79.8369 23.9384 80.9932 23.6243 81.9209 22.982C82.8486 22.3682 83.3203 21.4832 83.3203 20.3698Z" fill="#292F36" fill-opacity="1.000000" fill-rule="nonzero"/>
	<path d="M90.4004 29.2057L90.4004 0L98.1797 0L98.1797 29.1914L90.4004 29.1914L90.4004 29.2057ZM91.542 23.6957L97.3809 23.6957L97.3809 22.2255L95.3682 22.2255L95.3682 12.2047L91.5 12.2047L91.5 13.675L93.5693 13.675L93.5693 22.2255L91.5566 22.2255L91.5566 23.6957L91.542 23.6957ZM93.3691 6.88031L93.3691 9.2356L95.3398 9.2356L95.3398 6.88031L93.3691 6.88031Z" fill="#292F36" fill-opacity="1.000000" fill-rule="nonzero"/>
	<path d="M104.019 29.2057L104.019 0L116.452 0L116.452 29.1914L104.019 29.1914L104.019 29.2057ZM115.338 19.8273L113.782 19.4847C113.439 21.4261 112.397 22.3967 110.685 22.3967C109.543 22.3967 108.672 22.0114 108.072 21.2405C107.473 20.4697 107.173 19.3848 107.173 18.0145C107.173 16.7726 107.444 15.7162 107.973 14.8312C108.501 13.9462 109.386 13.518 110.613 13.518C111.556 13.518 112.384 13.7321 113.068 14.1603L113.511 16.1017L115.01 15.9161L114.567 13.1469C113.982 12.7043 113.368 12.3903 112.726 12.219C112.084 12.0477 111.384 11.962 110.628 11.962C108.844 11.962 107.487 12.5901 106.603 13.8463C105.703 15.1025 105.261 16.5299 105.261 18.1144C105.261 19.9558 105.731 21.3975 106.688 22.411C107.63 23.4388 108.9 23.9527 110.485 23.9527C112.069 23.9527 113.24 23.5102 113.982 22.6394C114.725 21.7544 115.182 20.8265 115.338 19.8273Z" fill="#292F36" fill-opacity="1.000000" fill-rule="nonzero"/>
	<path d="M7.4375 45.1504C7.1084 45.7499 6.62305 46.2209 5.99512 46.5493C5.35254 46.8776 4.59668 47.0489 3.71094 47.0489L1.15625 47.0489L1.15625 38.998L3.71094 38.998C4.59668 38.998 5.36719 39.1551 5.99512 39.4834C6.62305 39.8117 7.1084 40.2685 7.4375 40.8823C7.76562 41.4961 7.92285 42.1956 7.92285 43.0234C7.92285 43.8371 7.76562 44.5508 7.4375 45.1504ZM6.02344 45.3074C6.58105 44.765 6.85156 44.0084 6.85156 43.0234C6.85156 42.0385 6.58105 41.282 6.02344 40.7396C5.4668 40.1971 4.66797 39.9259 3.61133 39.9259L2.16992 39.9259L2.16992 46.121L3.61133 46.121C4.66797 46.121 5.4668 45.8498 6.02344 45.3074Z" fill="#292F36" fill-opacity="1.000000" fill-rule="nonzero"/>
	<path d="M13.2178 39.8403L13.2178 42.5952L16.2725 42.5952L16.2725 43.3946L13.2178 43.3946L13.2178 46.2067L16.6152 46.2067L16.6152 47.0489L12.1758 47.0489L12.1758 38.998L16.6152 38.998L16.6152 39.8403L13.2178 39.8403Z" fill="#292F36" fill-opacity="1.000000" fill-rule="nonzero"/>
	<path d="M25.6367 46.0211C25.4512 46.3494 25.1797 46.6206 24.8086 46.8204C24.4375 47.0203 23.9805 47.1345 23.4238 47.1345C22.8955 47.1345 22.4102 47.0345 21.9961 46.849C21.582 46.6492 21.2539 46.3922 20.9971 46.0496C20.7549 45.707 20.6113 45.3216 20.5693 44.8934L21.6826 44.8934C21.7109 45.1218 21.7822 45.3502 21.9111 45.5643C22.0391 45.7784 22.2393 45.964 22.4814 46.1068C22.7246 46.2495 23.0244 46.3209 23.3809 46.3209C23.8379 46.3209 24.1943 46.2067 24.4375 45.9497C24.6797 45.6927 24.8086 45.393 24.8086 45.0076C24.8086 44.6793 24.7227 44.408 24.5518 44.2082C24.3799 44.0084 24.166 43.837 23.9238 43.7229C23.6807 43.6087 23.3242 43.4802 22.8955 43.3375C22.3818 43.1662 21.9824 43.0092 21.668 42.8664C21.3545 42.7236 21.0967 42.4952 20.8828 42.1955C20.6689 41.8958 20.5547 41.5103 20.5547 41.025C20.5547 40.611 20.6543 40.2399 20.8545 39.9116C21.0547 39.5975 21.3398 39.3406 21.7256 39.1693C22.0967 38.998 22.5527 38.9124 23.0527 38.9124C23.8379 38.9124 24.4805 39.0979 24.9365 39.4833C25.4082 39.8688 25.665 40.3541 25.751 40.9536L24.6367 40.9536C24.5801 40.6396 24.4092 40.3541 24.1514 40.1114C23.8809 39.8688 23.5234 39.7403 23.0674 39.7403C22.6533 39.7403 22.3105 39.8545 22.0674 40.0686C21.8105 40.2827 21.6963 40.5967 21.6963 40.9822C21.6963 41.2962 21.7822 41.5532 21.9395 41.7387C22.1104 41.9385 22.3105 42.0813 22.5527 42.1955C22.7959 42.3097 23.1387 42.4239 23.5527 42.5667C24.0664 42.7379 24.4805 42.895 24.8086 43.052C25.1221 43.209 25.3936 43.4374 25.6074 43.7371C25.8223 44.0369 25.9365 44.4509 25.9365 44.9648C25.9072 45.3359 25.8223 45.6927 25.6367 46.0211Z" fill="#292F36" fill-opacity="1.000000" fill-rule="nonzero"/>
	<path d="M31.2041 38.998L31.2041 47.0489L30.1621 47.0489L30.1621 38.998L31.2041 38.998Z" fill="#292F36" fill-opacity="1.000000" fill-rule="nonzero"/>
	<path d="M41.7383 39.6119C42.3809 40.0829 42.8096 40.7111 43.0234 41.5104L41.9238 41.5104C41.7383 41.0251 41.4102 40.6254 40.9678 40.3399C40.5254 40.0402 39.9971 39.8974 39.3838 39.8974C38.8408 39.8974 38.3418 40.0259 37.9131 40.2828C37.4844 40.5397 37.1426 40.8966 36.8857 41.3677C36.6426 41.8387 36.5146 42.3954 36.5146 43.0378C36.5146 43.6944 36.6426 44.2654 36.8857 44.7365C37.1279 45.2075 37.4844 45.5787 37.9277 45.8356C38.3701 46.0925 38.8838 46.221 39.4688 46.221C39.9688 46.221 40.4111 46.1068 40.8252 45.907C41.2393 45.6929 41.5674 45.3788 41.8389 44.9791C42.1094 44.5794 42.2529 44.0941 42.3096 43.5517L39.1406 43.5517L39.1406 42.7808L43.1807 42.7808L43.1807 43.7372C43.1094 44.3796 42.9092 44.9506 42.5811 45.4788C42.2529 46.0069 41.8105 46.4066 41.2529 46.7064C40.6963 47.0061 40.0684 47.1631 39.3545 47.1631C38.584 47.1631 37.8984 46.9918 37.2988 46.6492C36.7002 46.3066 36.2432 45.8213 35.915 45.1932C35.5859 44.5794 35.415 43.8657 35.415 43.0663C35.415 42.267 35.5859 41.5532 35.915 40.9395C36.2432 40.3256 36.7139 39.826 37.2988 39.4834C37.8848 39.1408 38.5693 38.9553 39.3408 38.9553C40.3115 38.9267 41.0967 39.1551 41.7383 39.6119Z" fill="#292F36" fill-opacity="1.000000" fill-rule="nonzero"/>
	<path d="M53.7148 47.0489L52.6729 47.0489L48.4902 40.6824L48.4902 47.0489L47.4482 47.0489L47.4482 38.998L48.4902 38.998L52.6729 45.3645L52.6729 38.998L53.7148 38.998L53.7148 47.0489Z" fill="#292F36" fill-opacity="1.000000" fill-rule="nonzero"/>
	<path d="M68.7314 46.0211C68.5459 46.3494 68.2744 46.6206 67.9033 46.8204C67.5322 47.0203 67.0752 47.1345 66.5186 47.1345C65.9902 47.1345 65.5049 47.0345 65.0908 46.849C64.6768 46.6492 64.3486 46.3922 64.0918 46.0496C63.8496 45.707 63.7061 45.3216 63.6641 44.8934L64.7773 44.8934C64.8057 45.1218 64.877 45.3502 65.0059 45.5643C65.1338 45.7784 65.334 45.964 65.5762 46.1068C65.8193 46.2495 66.1191 46.3209 66.4756 46.3209C66.9326 46.3209 67.2891 46.2067 67.5322 45.9497C67.7744 45.6927 67.9033 45.393 67.9033 45.0076C67.9033 44.6793 67.8174 44.408 67.6465 44.2082C67.4746 44.0084 67.2607 43.837 67.0186 43.7229C66.7754 43.6087 66.4189 43.4802 65.9902 43.3375C65.4766 43.1662 65.0771 43.0092 64.7627 42.8664C64.4492 42.7236 64.1914 42.4952 63.9775 42.1955C63.7637 41.8958 63.6494 41.5103 63.6494 41.025C63.6494 40.611 63.749 40.2399 63.9492 39.9116C64.1494 39.5975 64.4346 39.3406 64.8203 39.1693C65.1914 38.998 65.6475 38.9124 66.1475 38.9124C66.9326 38.9124 67.5752 39.0979 68.0312 39.4833C68.5029 39.8688 68.7598 40.3541 68.8457 40.9536L67.7314 40.9536C67.6748 40.6396 67.5039 40.3541 67.2461 40.1114C66.9756 39.8688 66.6182 39.7403 66.1621 39.7403C65.748 39.7403 65.4053 39.8545 65.1621 40.0686C64.9053 40.2827 64.791 40.5967 64.791 40.9822C64.791 41.2962 64.877 41.5532 65.0342 41.7387C65.2051 41.9385 65.4053 42.0813 65.6475 42.1955C65.8906 42.3097 66.2334 42.4239 66.6475 42.5667C67.1611 42.7379 67.5752 42.895 67.9033 43.052C68.2168 43.209 68.4883 43.4374 68.7021 43.7371C68.917 44.0369 69.0312 44.4509 69.0312 44.9648C69.002 45.3359 68.917 45.6927 68.7314 46.0211Z" fill="#292F36" fill-opacity="1.000000" fill-rule="nonzero"/>
	<path d="M78.1953 38.998L78.1953 39.8403L75.9258 39.8403L75.9258 47.0489L74.8691 47.0489L74.8691 39.8403L72.5996 39.8403L72.5996 38.998L78.1953 38.998Z" fill="#292F36" fill-opacity="1.000000" fill-rule="nonzero"/>
	<path d="M83.0488 38.998L83.0488 43.8228C83.0488 44.6079 83.2197 45.1932 83.5771 45.5786C83.9336 45.9498 84.4043 46.1496 85.0332 46.1496C85.6465 46.1496 86.1172 45.9641 86.46 45.5786C86.8027 45.1932 86.9736 44.6222 86.9736 43.8371L86.9736 39.0123L88.0166 39.0123L88.0166 43.8371C88.0166 44.9363 87.7451 45.7642 87.2021 46.3066C86.6602 46.8633 85.9316 47.1345 85.0186 47.1345C84.1191 47.1345 83.3916 46.8633 82.8486 46.3066C82.3066 45.7499 82.0352 44.9363 82.0352 43.8371L82.0352 39.0123L83.0488 39.0123L83.0488 38.998Z" fill="#292F36" fill-opacity="1.000000" fill-rule="nonzero"/>
	<path d="M98.7646 45.1504C98.4365 45.7499 97.9512 46.2209 97.3232 46.5493C96.6807 46.8776 95.9248 47.0489 95.0391 47.0489L92.4844 47.0489L92.4844 38.998L95.0391 38.998C95.9248 38.998 96.6953 39.1551 97.3232 39.4834C97.9512 39.8117 98.4365 40.2685 98.7646 40.8823C99.0938 41.4961 99.251 42.1956 99.251 43.0234C99.251 43.8371 99.0938 44.5508 98.7646 45.1504ZM97.3662 45.3074C97.9229 44.765 98.1943 44.0084 98.1943 43.0234C98.1943 42.0385 97.9229 41.282 97.3662 40.7396C96.8096 40.1971 96.0098 39.9259 94.9541 39.9259L93.5117 39.9259L93.5117 46.121L94.9541 46.121C95.9961 46.121 96.8096 45.8498 97.3662 45.3074Z" fill="#292F36" fill-opacity="1.000000" fill-rule="nonzero"/>
	<path d="M104.561 38.998L104.561 47.0489L103.519 47.0489L103.519 38.998L104.561 38.998Z" fill="#292F36" fill-opacity="1.000000" fill-rule="nonzero"/>
	<path d="M114.781 39.4263C115.38 39.7832 115.852 40.2686 116.194 40.8966C116.536 41.5247 116.708 42.2385 116.708 43.0236C116.708 43.8087 116.536 44.5223 116.194 45.1505C115.852 45.7785 115.38 46.2639 114.781 46.6207C114.182 46.9776 113.511 47.1489 112.769 47.1489C112.025 47.1489 111.341 46.9776 110.741 46.6207C110.142 46.2639 109.656 45.7785 109.313 45.1505C108.971 44.5223 108.8 43.8087 108.8 43.0236C108.8 42.2385 108.971 41.5247 109.313 40.8966C109.656 40.2686 110.127 39.7832 110.741 39.4263C111.354 39.0695 112.025 38.8982 112.769 38.8982C113.511 38.8982 114.182 39.0695 114.781 39.4263ZM111.27 40.2543C110.827 40.5112 110.484 40.8681 110.241 41.3534C109.999 41.8245 109.87 42.3812 109.87 43.0236C109.87 43.6516 109.999 44.2083 110.241 44.6937C110.484 45.179 110.827 45.5358 111.27 45.7928C111.712 46.0497 112.197 46.1782 112.754 46.1782C113.296 46.1782 113.796 46.0497 114.238 45.7928C114.681 45.5358 115.023 45.1647 115.267 44.6937C115.509 44.2226 115.638 43.6659 115.638 43.0378C115.638 42.3954 115.509 41.8387 115.267 41.3677C115.023 40.8966 114.681 40.5255 114.238 40.2686C113.796 40.0116 113.311 39.8831 112.754 39.8831C112.211 39.8688 111.712 39.9973 111.27 40.2543Z" fill="#292F36" fill-opacity="1.000000" fill-rule="nonzero"/>
</svg>
