<svg width="144.701172" height="44.062988" viewBox="0 0 144.701 44.063" fill="none" xmlns="http://www.w3.org/2000/svg" xmlns:xlink="http://www.w3.org/1999/xlink">
	<desc>
			Created with Pixso.
	</desc>
	<defs/>
	<path d="M20.2412 8.8291L21.3115 8.60071C21.583 8.60071 21.8115 8.65784 21.9678 8.77203C22.125 8.88623 22.2109 9.00043 22.2109 9.10034C22.2109 9.20026 22.1826 9.3573 22.1396 9.54285C22.0967 9.72839 21.6973 11.6412 20.9551 15.2527C20.2129 18.8641 19.6699 21.562 19.3271 23.332C20.9834 21.0767 22.9248 18.3074 25.1367 15.01C27.3496 11.7126 28.6484 9.52856 29.0195 8.44373C29.1338 8.10114 29.291 7.84418 29.4766 7.65863C29.6621 7.47302 29.834 7.35883 29.9766 7.33032C30.1191 7.30176 30.3477 7.27319 30.6475 7.27319C30.9473 7.27319 31.3037 7.34454 31.7178 7.47302C32.1318 7.6015 32.3457 7.81561 32.3457 8.12964C32.3457 8.70062 31.4893 10.3708 29.791 13.1115C28.0918 15.8522 26.1367 18.7642 23.9385 21.8475C21.7402 24.9308 19.9131 27.3718 18.4424 29.1703C18.1855 29.4844 17.8574 29.6556 17.4863 29.6556C17.1152 29.6556 16.7148 29.5843 16.3008 29.4558C15.8877 29.3273 15.6729 29.0989 15.6729 28.7563C15.6729 27.6858 16.6152 22.5184 18.5 13.2828C16.8867 15.3669 14.9307 18.2789 12.6328 22.0045C10.2344 25.8586 8.87891 28.2568 8.56445 29.1703C8.39355 29.7271 8.19336 30.0554 7.96484 30.141C7.80762 30.2124 7.63672 30.2409 7.46484 30.2409L6.30859 30.3694C6.08105 30.3694 5.88086 30.3123 5.68066 30.1838C5.49512 30.0554 5.39551 29.9269 5.39551 29.7841C5.39551 29.3987 5.9375 28.2282 7.00879 26.2869C8.0791 24.3455 9.34961 22.2329 10.791 19.949C12.2334 17.665 13.7314 15.4525 15.3018 13.2971C16.8721 11.1416 18.0859 9.68561 18.9424 8.95758C19.1133 8.8006 19.3135 8.72919 19.542 8.72919L20.2412 8.8291Z" fill="#292F36" fill-opacity="1.000000" fill-rule="nonzero"/>
	<path d="M37.3994 18.5073C38.1416 18.5073 38.5127 18.7642 38.5127 19.2639C38.5127 19.535 38.4561 19.7349 38.3271 19.8633C38.1992 19.9918 37.9277 20.4058 37.5137 21.1338C37.0996 21.8475 36.6426 22.7611 36.1436 23.8888C35.6436 25.0022 35.3154 25.9586 35.1729 26.7437C35.1445 26.8436 35.1299 26.972 35.1299 27.1577C35.1299 27.7001 35.2725 27.957 35.5723 27.957C35.8721 27.957 36.2148 27.8143 36.6143 27.543C37.0137 27.2576 37.3711 26.972 37.6846 26.6437C37.999 26.3297 38.2988 26.0014 38.5986 25.6731C38.8984 25.3448 39.0693 25.145 39.127 25.1021C39.1836 25.0593 39.2695 25.0308 39.3838 25.0308C39.5693 25.0308 39.6836 25.1735 39.7266 25.459C39.7695 25.7444 39.7832 26.03 39.7832 26.344C39.7832 26.658 39.7549 26.8578 39.6982 26.972C39.4121 27.5288 38.7988 28.1997 37.8281 28.9848C36.8711 29.7699 35.9863 30.1553 35.2012 30.1553C34.416 30.1553 33.8311 29.9126 33.4736 29.4416C33.1172 28.9705 32.917 28.4281 32.917 27.8571C32.917 27.2719 33.0176 26.7722 33.2168 26.3297C32.4033 27.386 31.4756 28.2711 30.4336 29.0133C29.377 29.7413 28.5352 30.1125 27.8643 30.1125C27.1934 30.1125 26.665 29.9127 26.2373 29.5129C25.6943 29.0134 25.4375 28.3282 25.4375 27.4431C25.4375 26.5581 25.6377 25.6731 26.0371 24.7738C26.4365 23.8888 26.9502 23.0609 27.5928 22.3328C28.2354 21.5906 28.9492 20.9197 29.7197 20.3201C31.333 19.0497 32.832 18.4216 34.2021 18.4216C34.7305 18.4216 35.1582 18.5073 35.4863 18.6786C35.8154 18.8499 36.0293 19.0782 36.1152 19.3352C36.3428 18.9783 36.543 18.7642 36.7148 18.6643C36.8428 18.5501 37.0859 18.5073 37.3994 18.5073ZM35.458 20.1346C33.7881 20.1346 32.0605 21.0624 30.2764 22.9181C29.6484 23.589 29.0635 24.3741 28.5205 25.3019C27.9785 26.2298 27.7217 26.8578 27.7217 27.2004C27.7217 27.543 27.8213 27.7144 28.0215 27.7144C28.292 27.7144 29.0488 27.1719 30.3047 26.1013C31.5615 25.0308 32.3896 24.2314 32.7891 23.7175C33.2461 23.1465 34.1309 21.9474 35.458 20.1346Z" fill="#292F36" fill-opacity="1.000000" fill-rule="nonzero"/>
	<path d="M48.5049 10.7703L49.1045 10.913C49.1904 10.913 49.2754 10.9558 49.333 11.0415C49.4043 11.1271 49.4326 11.2128 49.4326 11.2841C49.4326 11.3555 49.333 11.5696 49.1191 11.9122C48.9043 12.2548 48.6758 12.6403 48.3906 13.0685C48.1055 13.4967 47.9629 13.7394 47.9482 13.7822C48.7051 13.7251 49.2471 13.6965 49.5615 13.6965C49.875 13.6965 50.0898 13.7251 50.2178 13.7679C50.332 13.8107 50.4746 13.9392 50.6172 14.139C50.7744 14.3389 50.9033 14.4959 51.0312 14.5958C51.1602 14.6957 51.2168 14.8528 51.2168 15.0526C51.2168 15.2524 51.0889 15.438 50.8457 15.5665C50.6035 15.7092 50.332 15.7949 50.0469 15.8234C47.7773 16.0518 46.5352 16.166 46.3066 16.1803C45.5215 17.3937 44.4082 19.2779 42.9951 21.833C41.582 24.3882 40.8252 26.0012 40.7393 26.6436C40.6973 26.9433 40.6826 27.1717 40.6826 27.3573C40.6826 27.7427 40.8828 27.9283 41.2822 27.9283C41.6816 27.9283 42.124 27.7712 42.6094 27.4715C43.0947 27.1574 43.5518 26.8291 43.9512 26.4722C45.0508 25.5016 45.6357 25.002 45.707 25.002C45.9639 25.002 46.0928 25.4445 46.0928 26.3152C46.0928 26.7863 45.8789 27.2145 45.4355 27.5999C44.4512 28.4421 43.623 29.0845 42.9521 29.5128C42.2812 29.941 41.6104 30.1551 40.9248 30.1551C40.7822 30.1551 40.6396 30.1408 40.5117 30.1122C39.7266 29.9695 39.1553 29.684 38.7979 29.2558C38.4268 28.8276 38.2559 28.2566 38.2559 27.5428C38.2559 26.8291 38.4697 25.9441 38.8984 24.9163C39.3262 23.8885 39.8545 22.7894 40.4971 21.6332C41.5537 19.7347 42.6094 17.9647 43.6514 16.3088L43.0947 16.3801C41.9668 16.5086 41.3105 16.5657 41.125 16.5657L40.9961 16.5657C40.7109 16.5657 40.4395 16.5086 40.1826 16.3944C39.9258 16.2802 39.7832 16.1375 39.7832 15.9805C39.7832 15.8092 39.8545 15.6522 39.9971 15.4951C40.1396 15.3381 40.2256 15.2097 40.2539 15.124C40.3252 14.9099 40.583 14.6672 41.0254 14.4103C41.4678 14.1533 41.7959 14.0106 42.0244 13.9963C42.2529 13.9821 42.4668 13.9678 42.6807 13.9535C42.8955 13.9392 43.123 13.9392 43.3809 13.9249C43.6377 13.9106 43.8369 13.9106 43.9795 13.8964L45.293 13.8393C46.1064 12.6117 46.6777 11.8123 46.9775 11.4697C47.292 11.1129 47.4629 10.9273 47.5059 10.8987C47.5488 10.8702 47.6484 10.8416 47.8057 10.8416L48.5049 10.7703Z" fill="#292F36" fill-opacity="1.000000" fill-rule="nonzero"/>
	<path d="M57.2832 25.0307C57.4688 25.0307 57.583 25.1735 57.626 25.4589C57.6689 25.7444 57.6826 26.0299 57.6826 26.3439C57.6826 26.658 57.6543 26.8578 57.5977 26.972C57.3115 27.5145 56.6982 28.1854 55.7422 28.9705C54.7852 29.7556 53.8721 30.1553 53.0156 30.1553C52.4873 30.1553 52.002 29.9982 51.5449 29.6842C51.1025 29.3702 50.874 28.8135 50.874 28.0283C50.874 27.2432 51.0879 26.4581 51.502 25.7016C49.0752 28.7421 47.1914 30.2552 45.8066 30.2552C45.2646 30.2552 44.8213 30.0554 44.4795 29.6699C44.1367 29.2845 43.9795 28.8848 43.9795 28.4566C43.9795 28.0426 44.0361 27.6144 44.1504 27.1719C44.2646 26.7294 44.3936 26.3297 44.5215 25.9728C44.6504 25.616 44.8506 25.1877 45.1074 24.6738C45.3643 24.16 45.5645 23.7888 45.6777 23.5461C45.792 23.3035 46.0068 22.9609 46.292 22.4898C46.5771 22.0187 46.9346 21.3764 47.3906 20.577C47.8477 19.7776 48.2188 19.1782 48.5186 18.7927C48.8184 18.4073 49.1045 18.2075 49.3896 18.2075C49.6748 18.2075 49.918 18.3217 50.1318 18.55C50.3457 18.7784 50.46 18.9783 50.46 19.121C50.46 19.2638 50.1318 19.9204 49.4756 21.0909C47.5479 24.5882 46.5771 26.6152 46.5771 27.2004C46.5771 27.3431 46.6348 27.4146 46.7344 27.4146C47.2051 27.4146 48.376 26.4011 50.2314 24.3741C52.0879 22.3471 53.1719 21.0481 53.4717 20.4771C53.7715 19.9061 54.043 19.4208 54.3281 19.0354C54.5996 18.65 54.8135 18.4073 54.957 18.3217C55.3701 18.0505 55.9131 17.9077 56.584 17.8792C56.6982 17.8792 56.7695 17.8792 56.8262 17.8934C56.8838 17.9077 56.9551 17.9933 57.0264 18.1361C57.0977 18.2788 57.1406 18.4073 57.1406 18.5072C57.0547 18.7784 56.6699 19.5065 55.9697 20.6912C55.2852 21.876 54.8994 22.5469 54.8281 22.6897C53.6719 25.0735 53.1006 26.6295 53.1006 27.3431C53.1006 27.7571 53.2578 27.957 53.5723 27.957C54.1426 27.8856 54.8281 27.4288 55.6279 26.6009C55.9277 26.3011 56.2129 25.9871 56.498 25.673C56.7842 25.359 56.9697 25.1735 57.0264 25.1306C57.0977 25.0593 57.1836 25.0307 57.2832 25.0307Z" fill="#292F36" fill-opacity="1.000000" fill-rule="nonzero"/>
	<path d="M61.5234 21.6478C63.8213 19.0355 65.792 17.7223 67.4043 17.7223C67.8047 17.7223 68.1328 17.8365 68.3896 18.0791C68.6465 18.3218 68.7754 18.6216 68.7754 19.007C68.7754 19.3924 68.5039 20.0204 67.9609 20.9197C67.4189 21.8048 66.9189 22.5613 66.4629 23.1751C66.2197 23.4892 65.9482 23.6462 65.6348 23.6462C65.335 23.6462 65.0918 23.532 64.9209 23.3036C64.75 23.0752 64.6641 22.8183 64.6641 22.5185C64.6641 21.8476 65.0205 21.0768 65.749 20.2346L65.7197 20.2061C65.3916 20.2346 64.6064 20.877 63.3223 22.1046C62.0518 23.3464 60.9668 24.4598 60.0674 25.4305C59.1826 26.4155 58.2119 27.6002 57.1553 29.0134C56.8555 29.4274 56.5986 29.6415 56.3848 29.6415C56.1709 29.6415 55.8994 29.5701 55.5566 29.4417C55.2139 29.3132 55 29.2133 54.9287 29.1562C54.8574 29.0991 54.8145 28.9991 54.8145 28.8564C54.8145 28.7279 54.8574 28.5566 54.9287 28.3853C55 28.1998 55.1572 27.9428 55.3564 27.6145C55.5566 27.2862 55.8848 26.7438 56.3135 26.0015C56.7412 25.2592 57.3984 24.1315 58.2979 22.6327C59.1963 21.1339 59.7246 20.2203 59.9102 19.9062C60.2812 19.2639 60.5811 18.7928 60.8242 18.5074C61.2666 17.9507 62.0088 17.6794 63.0508 17.6794C63.2793 17.6794 63.4082 17.8222 63.4082 18.1219C63.4082 18.5787 62.9795 19.4495 62.1377 20.7056L61.5234 21.6478Z" fill="#292F36" fill-opacity="1.000000" fill-rule="nonzero"/>
	<path d="M77.2676 18.6785C77.2676 19.3209 77.0107 19.8918 76.4824 20.3771C75.9551 20.8625 75.3691 21.1052 74.6982 21.1052C74.4844 21.1052 74.3418 21.048 74.2705 20.9481C74.1992 20.8482 74.1699 20.7054 74.1699 20.5485C74.1699 20.3914 74.1846 20.2202 74.2275 20.0631C73.8701 20.1773 73.4854 20.3629 73.0566 20.6055C72.6289 20.8482 72.1006 21.2051 71.4727 21.6904C70.8447 22.1757 70.5303 22.5183 70.5303 22.761C70.5303 22.8324 70.6445 22.8752 70.873 22.8752C71.1016 22.8752 71.458 22.7896 71.9297 22.6325C72.4004 22.4755 72.7432 22.3898 72.9287 22.3898C73.1143 22.3898 73.2422 22.4041 73.2998 22.4184C73.4277 22.4898 73.5566 22.6325 73.7139 22.8609C73.8564 23.0893 73.9277 23.2749 73.9277 23.4033C73.9277 23.5318 73.7988 23.7031 73.542 23.9172C73.2852 24.1313 73 24.2884 72.6855 24.4026C72.3574 24.5168 72.1436 24.6024 72.043 24.6595C69.9883 25.8157 68.96 26.6008 68.96 27.0291C68.96 27.7856 69.6025 28.171 70.9014 28.171C71.7295 28.171 72.5713 27.9141 73.3994 27.3859C74.1133 26.9434 74.7559 26.4866 75.3262 26.0156C75.8975 25.5588 76.2539 25.2733 76.4111 25.1591C76.5684 25.0449 76.6826 25.0021 76.7539 25.0021C77.0107 25.0021 77.1396 25.2876 77.1396 25.8586C77.1396 26.4296 77.1113 26.8007 77.0391 26.972C76.9678 27.1575 76.7822 27.3716 76.4541 27.6429C74.3701 29.3416 72.3857 30.1981 70.5303 30.1981C69.5312 30.1981 68.7461 30.0553 68.1465 29.7841C67.0469 29.2845 66.5049 28.5279 66.5049 27.5001C66.5049 26.1583 67.4326 25.1306 69.3027 24.4454C68.9316 24.2741 68.6885 24.0743 68.5889 23.803C68.4746 23.5461 68.4316 23.1321 68.4316 22.5612C68.4316 21.9902 68.7031 21.3906 69.2314 20.7483C69.7598 20.106 70.416 19.5778 71.1865 19.1781C72.8994 18.2502 74.4414 17.7935 75.7832 17.7935C76.1113 17.7935 76.4258 17.8648 76.7686 18.0219C77.1113 18.1789 77.2676 18.393 77.2676 18.6785Z" fill="#292F36" fill-opacity="1.000000" fill-rule="nonzero"/>
	<path d="M110.584 8.74347L110.77 8.74347C110.827 8.74347 110.87 8.74347 110.884 8.75775C110.898 8.77203 110.913 8.77203 110.941 8.78632C110.97 8.78632 110.984 8.8006 111.013 8.82916C111.056 8.87195 111.127 8.91479 111.213 8.95764C111.326 9.04327 111.384 9.14319 111.384 9.25739C111.384 9.37158 111.27 9.61426 111.041 9.98541C110.812 10.3565 110.228 11.2558 109.271 12.7118C107.087 16.0521 105.132 19.1639 103.404 22.0188C100.421 26.9863 98.9082 29.4844 98.8789 29.5129C98.8506 29.5415 98.8369 29.5701 98.8223 29.5986C98.8076 29.6557 98.7793 29.6843 98.708 29.6843L98.5078 29.6414L98.1084 29.7413L97.8799 29.6985L97.6377 29.7413L97.5518 29.7413L96.7383 29.8555C96.2529 29.8555 96.0098 29.6843 96.0098 29.356C96.0098 29.2132 96.0527 29.0419 96.1387 28.842C96.4385 28.1283 97.9658 25.5446 100.706 21.0624C98.9082 21.1052 97.123 21.1338 95.3682 21.1338L92.2275 21.1195C91.7139 21.9474 91 23.118 90.1006 24.6453C88.1592 27.9713 87.1309 29.6414 87.0029 29.67C86.874 29.6985 86.7744 29.7271 86.6885 29.7271C86.6035 29.7271 86.5322 29.6843 86.4746 29.5844C86.4033 29.4987 86.3604 29.4416 86.332 29.4416C86.3037 29.4416 86.2607 29.4559 86.1748 29.4987C86.1035 29.5415 85.9893 29.5558 85.832 29.5558L85.4893 29.5415L85.3613 29.4559C85.3467 29.4559 85.333 29.4701 85.3184 29.4987C85.3037 29.5272 85.2617 29.5415 85.2041 29.5415C84.79 29.5415 84.5762 29.3702 84.5762 29.0133C84.5762 28.785 84.6621 28.4709 84.8184 28.0855C84.9902 27.7001 85.2041 27.2861 85.4756 26.8436C85.7471 26.4011 86.4316 25.3305 87.5596 23.6604C88.6729 21.9902 89.2295 21.1481 89.2295 21.1338C89.0439 21.1195 88.8301 21.1195 88.5869 21.1052C88.0879 21.1052 87.7451 21.0909 87.5312 21.0482C86.9746 20.9482 86.5889 20.4915 86.3887 19.6778C86.2744 19.2781 86.2324 19.0212 86.2461 18.8927C86.2461 18.6357 86.3604 18.493 86.5889 18.493L86.9746 18.5929C87.1738 18.6072 87.6309 18.6215 88.373 18.6643C89.1152 18.7071 89.6436 18.7214 89.9717 18.7214L90.7998 18.6929C92.0703 16.7087 93.583 14.4533 95.3535 11.941C94.0684 12.9973 92.6416 13.5255 91.0713 13.5255C90.3291 13.5255 89.6865 13.3542 89.1582 12.9973C88.6162 12.6404 88.3594 12.1837 88.3594 11.6412C88.3594 11.0988 88.5586 10.6705 88.9727 10.3422C89.3867 10.0282 89.7725 9.87115 90.1436 9.87115C90.5146 9.87115 90.7002 9.92828 90.7002 10.0425C90.7002 10.0853 90.6426 10.1281 90.543 10.171C90.4434 10.228 90.3857 10.2709 90.3857 10.3137C90.3857 10.4707 90.5576 10.6135 90.8994 10.7277C91.2422 10.8419 91.6279 10.9132 92.0557 10.9132C92.4844 10.9132 92.998 10.7847 93.626 10.5421C94.2539 10.2994 94.8965 9.97113 95.5674 9.58569C96.5098 9.04327 97.252 8.58649 97.7939 8.22961C98.1084 8.07257 98.3936 8.00122 98.6797 8.00122C98.9648 8.00122 99.1504 8.02979 99.2793 8.10114C99.4072 8.15826 99.4932 8.22961 99.5498 8.28668C99.6074 8.34381 99.6787 8.42944 99.7354 8.52936C99.8066 8.62927 99.8643 8.71497 99.9355 8.75775C99.9922 8.81488 100.035 8.87195 100.035 8.94336C100.035 9.01471 99.9922 9.11462 99.9209 9.27167C99.8496 9.41443 99.4785 10.0139 98.8076 11.056C98.1367 12.098 97.2666 13.4255 96.21 15.0386C95.1533 16.6516 94.3828 17.8364 93.8975 18.6072C96.5098 18.6072 99.3213 18.5644 102.348 18.4645C106.031 12.6547 107.972 9.61426 108.172 9.32874C108.372 9.04327 108.558 8.85767 108.729 8.77203C108.9 8.6864 109.1 8.64355 109.343 8.64355L110.584 8.74347Z" fill="#292F36" fill-opacity="1.000000" fill-rule="nonzero"/>
	<path d="M115.353 18.4786C115.652 18.4786 115.952 18.6071 116.252 18.8784C116.566 19.1495 116.709 19.5493 116.709 20.0917C116.709 20.6341 116.523 21.3336 116.138 22.2043C115.752 23.0608 115.238 23.9458 114.567 24.8451C113.911 25.7301 113.169 26.5723 112.384 27.3574C111.584 28.1425 110.728 28.7849 109.814 29.2845C108.886 29.7841 108.059 30.041 107.302 30.041C106.545 30.041 105.945 29.7983 105.489 29.3273C105.032 28.8563 104.804 28.1996 104.804 27.3574C104.804 26.5152 105.018 25.5731 105.432 24.5596C105.846 23.5319 106.374 22.6326 107.03 21.8474C107.688 21.0623 108.387 20.3629 109.157 19.7348C110.742 18.4501 112.141 17.822 113.34 17.822C113.882 17.822 114.282 17.9505 114.553 18.2217C114.653 18.3074 114.696 18.393 114.696 18.4501L114.696 18.5358C114.853 18.4786 115.067 18.4786 115.353 18.4786ZM113.882 20.42L113.782 20.42C113.439 20.42 113.269 20.1773 113.269 19.6777C112.555 19.9061 111.812 20.3201 111.027 20.9053C110.242 21.4906 109.543 22.1901 108.929 22.9894C107.673 24.5881 107.045 25.9442 107.03 27.0434C107.03 27.5858 107.23 27.857 107.63 27.857C108.029 27.857 108.629 27.5858 109.414 27.0719C110.199 26.558 110.984 25.8015 111.77 24.8165C112.54 23.8459 113.126 22.9894 113.511 22.2757C113.896 21.562 114.097 21.0766 114.097 20.8054C114.082 20.5485 114.011 20.42 113.882 20.42Z" fill="#292F36" fill-opacity="1.000000" fill-rule="nonzero"/>
	<path d="M116.395 29.7128L115.681 29.6842L115.424 29.6842C115.324 29.6556 115.225 29.5986 115.11 29.5129C114.996 29.4272 114.91 29.3559 114.854 29.3273C114.796 29.2988 114.768 29.2131 114.768 29.1132C114.768 29.0133 114.811 28.8277 114.882 28.585C116.78 24.4026 118.622 21.0481 120.406 18.55C120.605 18.2788 120.92 18.0647 121.348 17.922C121.776 17.7792 122.205 17.7078 122.618 17.7078C122.861 17.7078 122.989 17.8934 122.989 18.2788C122.989 18.393 122.947 18.5358 122.876 18.7071C122.804 18.8926 122.604 19.1782 122.29 19.5921C121.977 20.006 121.605 20.4771 121.177 20.991C120.749 21.5049 120.506 21.8189 120.449 21.9045C121.791 20.52 122.989 19.4922 124.074 18.807C125.159 18.1361 125.931 17.7935 126.416 17.7935C126.901 17.7935 127.272 17.9362 127.529 18.2075C127.786 18.4787 127.914 18.7784 127.914 19.0925C127.914 19.4065 127.886 19.6777 127.843 19.8776C127.8 20.0917 127.715 20.3058 127.601 20.5342C127.486 20.7626 127.387 20.9625 127.301 21.1194C127.215 21.2765 127.072 21.4906 126.887 21.7476C126.687 22.0045 126.559 22.1901 126.487 22.29C126.416 22.3899 126.259 22.5754 126.03 22.8467C125.802 23.1179 125.673 23.2749 125.659 23.3035C125.931 23.0322 126.315 22.6326 126.801 22.0901C127.286 21.5477 127.7 21.1052 128.043 20.7484C128.386 20.3915 128.8 19.9775 129.313 19.5208C129.827 19.064 130.298 18.6928 130.727 18.4216C131.783 17.765 132.854 17.4224 133.938 17.4224C134.31 17.4224 134.623 17.5366 134.881 17.7792C135.138 18.0219 135.266 18.2931 135.266 18.6214C135.266 18.9498 134.866 19.7349 134.081 20.9625C133.296 22.1901 132.496 23.4319 131.712 24.6738C130.927 25.9157 130.526 26.7008 130.526 27.0291C130.526 27.4716 130.612 27.7429 130.77 27.8285C130.94 27.9141 131.141 27.9427 131.369 27.9284C131.598 27.9141 131.939 27.7571 132.354 27.4716C132.782 27.1862 133.153 26.9006 133.481 26.5866C134.024 26.1013 134.509 25.6302 134.98 25.1735C135.08 25.0878 135.18 25.045 135.309 25.045C135.494 25.045 135.608 25.1877 135.651 25.4732C135.694 25.7587 135.708 26.0442 135.708 26.3582C135.708 26.6722 135.68 26.8721 135.623 26.9863C135.337 27.5287 134.709 28.1996 133.753 28.999C132.782 29.7841 131.854 30.1838 130.969 30.1838C130.855 30.1838 130.783 30.1838 130.741 30.1695C129.741 30.0696 129.042 29.7984 128.656 29.3416C128.271 28.8848 128.086 28.3424 128.086 27.7286C128.086 27.1147 128.3 26.3439 128.729 25.4589C129.156 24.5739 129.613 23.7603 130.127 23.0465C130.641 22.3328 131.098 21.6761 131.526 21.0909C131.954 20.5057 132.168 20.1917 132.168 20.1488C132.168 20.106 132.125 20.0775 132.054 20.0775C131.754 20.0775 131.083 20.5627 130.027 21.5477C128.243 23.2178 126.701 24.8309 125.402 26.3725C125.06 26.7864 124.246 27.8142 122.976 29.4844C122.833 29.6842 122.59 29.7841 122.276 29.7841C121.962 29.7841 121.634 29.727 121.291 29.5985C120.948 29.4701 120.777 29.313 120.777 29.1275C120.777 29.0276 121.548 27.6572 123.104 25.0164C124.66 22.3756 125.431 20.9339 125.431 20.7055C125.431 20.4628 125.288 20.3486 125.002 20.3486C124.717 20.3486 124.117 20.7769 123.218 21.6334C120.749 23.9886 118.836 26.3439 117.479 28.6707C117.395 28.8134 117.223 29.0276 116.966 29.313C116.709 29.5986 116.48 29.7128 116.395 29.7128Z" fill="#292F36" fill-opacity="1.000000" fill-rule="nonzero"/>
	<path d="M144.7 18.6785C144.7 19.3209 144.443 19.8918 143.915 20.3771C143.388 20.8625 142.802 21.1052 142.131 21.1052C141.917 21.1052 141.774 21.048 141.703 20.9481C141.632 20.8482 141.603 20.7054 141.603 20.5485C141.603 20.3914 141.617 20.2202 141.66 20.0631C141.303 20.1773 140.918 20.3629 140.489 20.6055C140.062 20.8482 139.533 21.2051 138.905 21.6904C138.277 22.1757 137.963 22.5183 137.963 22.761C137.963 22.8324 138.077 22.8752 138.306 22.8752C138.534 22.8752 138.891 22.7896 139.362 22.6325C139.833 22.4755 140.176 22.3898 140.361 22.3898C140.547 22.3898 140.675 22.4041 140.732 22.4184C140.86 22.4898 140.989 22.6325 141.146 22.8609C141.289 23.0893 141.36 23.2749 141.36 23.4033C141.36 23.5318 141.231 23.7031 140.975 23.9172C140.718 24.1313 140.433 24.2884 140.118 24.4026C139.79 24.5168 139.576 24.6024 139.476 24.6595C137.421 25.8157 136.393 26.6008 136.393 27.0291C136.393 27.7856 137.035 28.171 138.334 28.171C139.162 28.171 140.004 27.9141 140.832 27.3859C141.546 26.9434 142.188 26.4866 142.759 26.0156C143.33 25.5588 143.687 25.2733 143.844 25.1591C144.001 25.0449 144.115 25.0021 144.187 25.0021C144.443 25.0021 144.572 25.2876 144.572 25.8586C144.572 26.4296 144.544 26.8007 144.472 26.972C144.4 27.1575 144.215 27.3716 143.887 27.6429C141.803 29.3416 139.818 30.1981 137.963 30.1981C136.964 30.1981 136.179 30.0553 135.579 29.7841C134.479 29.2845 133.938 28.5279 133.938 27.5001C133.938 26.1583 134.865 25.1306 136.735 24.4454C136.364 24.2741 136.121 24.0743 136.021 23.803C135.907 23.5461 135.864 23.1321 135.864 22.5612C135.864 21.9902 136.136 21.3906 136.664 20.7483C137.192 20.106 137.849 19.5778 138.619 19.1781C140.332 18.2502 141.874 17.7935 143.216 17.7935C143.544 17.7935 143.858 17.8648 144.201 18.0219C144.544 18.1789 144.7 18.393 144.7 18.6785Z" fill="#292F36" fill-opacity="1.000000" fill-rule="nonzero"/>
	<path d="M0 33.6668C3.75391 35.237 7.58008 36.4504 11.4766 37.3782C15.3447 38.3489 19.2852 39.0341 23.2246 39.4623C25.1943 39.7335 27.1787 39.762 29.1348 39.9476C31.1182 39.9619 33.0879 40.1189 35.0586 40.0047L38.0127 39.9333C38.998 39.9191 39.9834 39.7906 40.9678 39.7335C41.9531 39.6478 42.9375 39.605 43.9082 39.4766L46.835 39.0626C50.7598 38.6343 54.5713 37.7208 58.3682 36.6216C62.208 35.5653 65.834 34.1664 69.6738 32.7104C73.5996 31.2687 77.8535 30.3266 82.1641 30.7834C84.291 31.0546 86.4326 31.7397 88.1738 32.9959C89.9297 34.2378 91.1855 36.0078 91.9854 37.8635C90.7861 36.2077 89.2871 34.8516 87.5596 34.0094C85.833 33.1672 83.9346 32.8246 82.0498 32.8817C78.2383 32.9388 74.4844 34.2092 70.959 35.808C67.376 37.5781 63.4932 39.1768 59.582 40.5043C55.6426 41.7747 51.5742 42.7883 47.4482 43.3021C39.2402 44.387 30.833 44.4012 22.7246 42.7597C18.6572 42.0174 14.6885 40.8612 10.8486 39.3909C7.03711 37.8635 3.31152 36.0792 0 33.6668Z" fill="#292F36" fill-opacity="1.000000" fill-rule="nonzero"/>
	<path d="M136.507 9.8996C133.323 8.54352 130.083 7.48718 126.8 6.65924C123.531 5.78851 120.22 5.17468 116.894 4.74646C115.237 4.48956 113.554 4.43243 111.897 4.2326C110.228 4.18976 108.571 4.01849 106.901 4.08984C106.073 4.10413 105.231 4.10413 104.403 4.08984C103.575 4.08984 102.733 4.17548 101.905 4.20404C101.077 4.26117 100.235 4.27539 99.4072 4.36108L96.9238 4.66083C93.5977 4.93207 90.3711 5.61725 87.1455 6.45941C83.877 7.24451 80.7793 8.35791 77.4814 9.47137C74.0986 10.5991 70.4297 11.2842 66.7471 10.7703C64.9346 10.4706 63.1074 9.82819 61.665 8.68622C60.1953 7.55853 59.1963 6.01691 58.582 4.40387C59.5957 5.81708 60.8516 6.97333 62.293 7.68701C63.7354 8.40076 65.3193 8.7005 66.9043 8.68622C70.1016 8.68622 73.2705 7.65851 76.2686 6.37378C79.3232 4.91779 82.6777 3.63306 86.0176 2.57672C89.3867 1.56323 92.8984 0.792419 96.4092 0.421265C103.418 -0.320984 110.584 -0.149719 117.45 1.4776C120.891 2.20563 124.245 3.31903 127.457 4.68939C130.683 6.08826 133.795 7.71558 136.507 9.8996Z" fill="#292F36" fill-opacity="1.000000" fill-rule="nonzero"/>
</svg>
