<svg width="131.283203" height="42.366882" viewBox="0 0 131.283 42.3669" fill="none" xmlns="http://www.w3.org/2000/svg" xmlns:xlink="http://www.w3.org/1999/xlink">
	<desc>
			Created with Pixso.
	</desc>
	<defs/>
	<path d="M11.6338 0L11.6338 0.185547L10.8633 0.371155L10.8633 8.59326L11.6338 8.77881L11.6338 8.96442L7.97949 8.96442L7.97949 8.77881L8.75 8.59326L8.75 1.58447L5.72363 9.0929L5.33887 9.0929L1.41309 1.58447L1.41309 8.39343L2.44141 8.77881L2.44141 8.96442L0 8.96442L0 8.77881L1.02734 8.39343L1.02734 0.371155L0.256836 0.185547L0.256836 0L1.85547 0C2.09863 0 2.3125 0.0285645 2.4834 0.0856323C2.65527 0.142761 2.82617 0.214111 2.95508 0.314026C3.09766 0.41394 3.21191 0.528137 3.31152 0.656616C3.41211 0.785095 3.49707 0.942139 3.58301 1.09912L6.38086 6.45209L8.52148 1.09912C8.59375 0.913574 8.66504 0.756531 8.76465 0.628052C8.85059 0.499634 8.96484 0.385437 9.09277 0.285461C9.22168 0.185547 9.37793 0.114197 9.56348 0.0713501C9.75 0.0285645 9.97754 0 10.2637 0L11.6338 0Z" fill="#292F36" fill-opacity="1.000000" fill-rule="nonzero"/>
	<path d="M16.2021 2.38379C16.7305 2.38379 17.2158 2.45514 17.6299 2.61218C18.043 2.76923 18.4004 2.99762 18.7002 3.28308C19 3.58282 19.2139 3.9397 19.3711 4.3537C19.5283 4.76764 19.5996 5.25299 19.5996 5.78113C19.5996 6.30927 19.5283 6.79462 19.3711 7.20856C19.2139 7.62256 18.9854 7.97943 18.7002 8.27917C18.4004 8.57892 18.043 8.79303 17.6299 8.95007C17.2158 9.10712 16.7305 9.17847 16.2021 9.17847C15.6738 9.17847 15.1885 9.10712 14.7744 8.95007C14.3604 8.79303 14.0039 8.56464 13.7041 8.27917C13.4043 7.97943 13.1904 7.62256 13.0332 7.20856C12.876 6.79462 12.8047 6.30927 12.8047 5.78113C12.8047 5.25299 12.876 4.76764 13.0332 4.3537C13.1904 3.9397 13.4189 3.58282 13.7041 3.28308C14.0039 2.98334 14.3604 2.76923 14.7744 2.61218C15.1885 2.45514 15.6592 2.38379 16.2021 2.38379ZM16.2021 8.93579C16.3447 8.93579 16.4873 8.89301 16.6445 8.79303C16.7871 8.69312 16.916 8.53613 17.0303 8.29346C17.1445 8.05078 17.2441 7.73676 17.3154 7.33704C17.3867 6.9231 17.4297 6.40918 17.4297 5.79541C17.4297 5.1673 17.3867 4.65344 17.3154 4.25372C17.2441 3.85406 17.1445 3.52576 17.0303 3.29736C16.916 3.06897 16.7871 2.89764 16.6445 2.79773C16.502 2.69781 16.3594 2.65503 16.2021 2.65503C16.0596 2.65503 15.917 2.69781 15.7598 2.79773C15.6172 2.89764 15.4883 3.05469 15.374 3.29736C15.2598 3.54004 15.1602 3.85406 15.0889 4.25372C15.0176 4.66772 14.9746 5.18158 14.9746 5.79541C14.9746 6.42346 15.0176 6.93738 15.0889 7.33704C15.1602 7.73676 15.2598 8.06506 15.374 8.29346C15.4883 8.52185 15.6172 8.69312 15.7598 8.79303C15.9023 8.87872 16.0449 8.93579 16.2021 8.93579Z" fill="#292F36" fill-opacity="1.000000" fill-rule="nonzero"/>
	<path d="M25.8369 0C26.6074 0 26.9932 0.385437 26.9932 1.15625L26.9932 8.60754L27.7637 8.79309L27.7637 8.9787L26.6074 8.9787C26.2939 8.9787 26.0508 8.93585 25.8652 8.83594C25.6797 8.73602 25.5225 8.62183 25.4229 8.50763C25.2949 8.36487 25.1943 8.1936 25.1377 8.02228C25.0234 8.25067 24.8809 8.43628 24.709 8.60754C24.5664 8.75031 24.3662 8.87878 24.124 9.0072C23.8809 9.13568 23.5957 9.19281 23.2676 9.19281C22.8965 9.19281 22.5537 9.12146 22.2393 8.9787C21.9111 8.83594 21.6406 8.62183 21.4121 8.3363C21.1836 8.05084 20.9834 7.69397 20.8555 7.28003C20.7119 6.85181 20.6553 6.36646 20.6553 5.79547C20.6553 5.22449 20.7266 4.73914 20.8555 4.31091C20.998 3.88269 21.1836 3.5401 21.4404 3.25458C21.6826 2.96912 21.9824 2.755 22.3252 2.61224C22.668 2.46948 23.0537 2.39813 23.4814 2.39813C23.71 2.39813 23.9102 2.4267 24.0957 2.46948C24.2812 2.52661 24.4385 2.58368 24.5664 2.65509C24.7236 2.72644 24.8516 2.81207 24.9658 2.91199L24.9658 0.41394L24.1953 0.228394L24.1953 0.0428467L25.8369 0.0428467L25.8369 0ZM24.9375 3.28314C24.8379 3.18323 24.752 3.0976 24.6377 3.02618C24.5381 2.95483 24.4385 2.89771 24.3242 2.84064C24.21 2.78351 24.0957 2.76929 23.9668 2.76929C23.8096 2.76929 23.6533 2.81207 23.5098 2.89771C23.3672 2.9834 23.2529 3.1261 23.1387 3.34027C23.0391 3.55438 22.9531 3.86841 22.8965 4.25378C22.8389 4.6535 22.8105 5.15308 22.8105 5.78119C22.8105 6.39502 22.8389 6.88031 22.8965 7.26575C22.9531 7.65112 23.0244 7.95093 23.125 8.16504C23.21 8.37915 23.3105 8.53619 23.4385 8.60754C23.5527 8.67889 23.667 8.72174 23.7812 8.72174C23.9814 8.72174 24.1523 8.66467 24.2949 8.5647C24.4385 8.46478 24.5518 8.3363 24.6523 8.20789C24.7666 8.05084 24.8662 7.87952 24.9521 7.69397L24.9521 3.28314L24.9375 3.28314Z" fill="#292F36" fill-opacity="1.000000" fill-rule="nonzero"/>
	<path d="M32.0605 9.19287C30.9609 9.19287 30.1045 8.89313 29.5059 8.29358C28.8916 7.69403 28.5918 6.85187 28.5918 5.79553C28.5918 5.2674 28.6631 4.78204 28.8203 4.3681C28.9775 3.9541 29.1914 3.59723 29.4629 3.29749C29.7334 2.99774 30.0625 2.78363 30.4619 2.62659C30.8477 2.46954 31.2754 2.39819 31.7461 2.39819C32.2314 2.39819 32.6602 2.46954 33.0312 2.59802C33.417 2.74078 33.7305 2.92633 34.002 3.15472C34.2734 3.38312 34.4727 3.65436 34.6152 3.96838C34.7588 4.28241 34.8301 4.61072 34.8301 4.96759C34.8301 5.08179 34.8301 5.19598 34.8154 5.28168C34.8008 5.36731 34.7871 5.45294 34.7725 5.52429C34.7441 5.60999 34.7295 5.68134 34.7012 5.73846C34.3301 5.80981 33.9307 5.88116 33.502 5.92401C33.1455 5.98108 32.7314 6.02393 32.2607 6.05249C31.7891 6.08099 31.3037 6.10956 30.79 6.10956C30.79 6.63776 30.833 7.08026 30.9043 7.43713C30.9756 7.79395 31.0898 8.07947 31.2188 8.2793C31.3613 8.49341 31.5176 8.63617 31.7041 8.7218C31.8896 8.80743 32.1035 8.85028 32.3174 8.85028C32.5742 8.85028 32.8174 8.80743 33.0459 8.70752C33.2734 8.6076 33.4736 8.49341 33.6309 8.33643C33.8018 8.17938 33.9307 7.99384 34.0303 7.79395C34.1299 7.59412 34.1729 7.39429 34.1729 7.18018L34.4873 7.18018C34.4873 7.43713 34.4297 7.67975 34.3154 7.92242C34.2021 8.1651 34.0303 8.37921 33.8164 8.56482C33.6025 8.75037 33.3447 8.89313 33.0459 9.00732C32.7598 9.1358 32.4316 9.19287 32.0605 9.19287ZM30.7754 5.78125C31.0615 5.78125 31.3184 5.78125 31.5469 5.76697C31.7754 5.75269 31.9609 5.73846 32.1172 5.72418C32.3027 5.7099 32.4463 5.68134 32.5742 5.66705C32.5889 5.58142 32.6172 5.48151 32.6318 5.38159C32.6455 5.28168 32.6602 5.1817 32.6748 5.0675C32.6885 4.95331 32.6885 4.82489 32.6885 4.69641C32.6885 4.31097 32.6602 3.98267 32.6025 3.72571C32.5459 3.46881 32.4746 3.25464 32.375 3.08337C32.2891 2.92633 32.1895 2.79785 32.0605 2.74078C31.9316 2.68365 31.832 2.64087 31.7178 2.64087C31.6035 2.64087 31.4893 2.68365 31.375 2.76935C31.2607 2.85498 31.1611 3.01202 31.0615 3.22614C30.9756 3.45453 30.8896 3.76855 30.833 4.1825C30.7754 4.5965 30.7754 5.12463 30.7754 5.78125Z" fill="#292F36" fill-opacity="1.000000" fill-rule="nonzero"/>
	<path d="M40.2256 2.82623C39.9688 2.82623 39.7402 2.88336 39.54 2.98328C39.3408 3.08319 39.1689 3.21167 39.0264 3.34015C38.8691 3.49713 38.7412 3.66846 38.6123 3.854L38.6123 8.60742L39.3828 8.79303L39.3828 8.97858L35.7861 8.97858L35.7861 8.79303L36.5566 8.60742L36.5566 2.95471L35.7861 2.76917L35.7861 2.58356L36.9424 2.58356C37.2422 2.58356 37.4844 2.64069 37.6846 2.7406C37.8701 2.84052 38.0273 2.95471 38.1416 3.06891C38.2695 3.21167 38.3701 3.36865 38.4268 3.53998C38.5557 3.35443 38.7119 3.18311 38.8984 3.02606C39.0547 2.89764 39.2549 2.78345 39.4971 2.66925C39.7402 2.55505 40.0117 2.51221 40.3398 2.51221C40.7969 2.51221 41.1387 2.6264 41.3672 2.82623C41.5957 3.04034 41.6953 3.34015 41.6953 3.72552C41.6953 4.01105 41.6104 4.25372 41.4385 4.42499C41.2676 4.59631 41.0244 4.68195 40.7393 4.68195C40.668 4.68195 40.6113 4.68195 40.5391 4.68195C40.4678 4.68195 40.4258 4.66766 40.3828 4.66766C40.3252 4.65338 40.2686 4.65338 40.2256 4.62482L40.2256 2.82623Z" fill="#292F36" fill-opacity="1.000000" fill-rule="nonzero"/>
	<path d="M47.2197 4.49652C47.2197 4.21106 47.1914 3.9541 47.1338 3.73999C47.0771 3.52588 47.0059 3.35455 46.9062 3.22607C46.8203 3.08337 46.7207 2.98346 46.5918 2.92633C46.4775 2.86926 46.3633 2.82642 46.249 2.82642C46.0498 2.82642 45.8779 2.88348 45.7354 2.98346C45.5928 3.08337 45.4639 3.21185 45.3789 3.34027C45.2646 3.49731 45.1787 3.66864 45.0928 3.85419L45.0928 8.6076L45.8633 8.79315L45.8633 8.97876L42.2666 8.97876L42.2666 8.79315L43.0371 8.6076L43.0371 2.9549L42.2666 2.76929L42.2666 2.58374L43.4229 2.58374C43.7227 2.58374 43.9648 2.64087 44.165 2.74078C44.3506 2.8407 44.5078 2.9549 44.6221 3.06909C44.75 3.21185 44.8506 3.36884 44.9072 3.54016C45.0215 3.32605 45.1641 3.12616 45.3359 2.9549C45.4785 2.81213 45.6777 2.68365 45.9062 2.55518C46.1348 2.42676 46.4346 2.36963 46.7773 2.36963C47.1484 2.36963 47.4912 2.42676 47.791 2.55518C48.1045 2.66937 48.3613 2.8407 48.5762 3.02625C48.79 3.22607 48.9609 3.44025 49.0898 3.69714C49.2188 3.9541 49.2754 4.21106 49.2754 4.48224L49.2754 8.59332L50.0459 8.77887L50.0459 8.96448L48.376 8.96448C47.6055 8.96448 47.2197 8.57904 47.2197 7.80823L47.2197 4.49652Z" fill="#292F36" fill-opacity="1.000000" fill-rule="nonzero"/>
	<path d="M1.35645 18.0001L1.35645 17.4719L11.2773 17.4719L11.2773 18.0001L9.19336 18.5283L9.19336 29.3055L16.6729 29.3055L16.6729 18.5283L14.5889 18.0001L14.5889 17.4719L24.5098 17.4719L24.5098 18.0001L22.4258 18.5283L22.4258 40.7965L24.5098 41.3246L24.5098 41.8528L14.5889 41.8528L14.5889 41.3104L16.6729 40.7822L16.6729 30.1763L9.19336 30.1763L9.19336 40.7822L11.2773 41.3104L11.2773 41.8386L1.35645 41.8386L1.35645 41.3104L3.44043 40.7822L3.44043 18.514L1.35645 18.0001Z" fill="#292F36" fill-opacity="1.000000" fill-rule="nonzero"/>
	<path d="M36.8428 23.9099C38.2842 23.9099 39.5693 24.124 40.7109 24.538C41.8525 24.952 42.8096 25.5657 43.6084 26.3651C44.4082 27.1645 45.0215 28.1352 45.4355 29.2772C45.8496 30.4191 46.0635 31.7038 46.0635 33.1455C46.0635 34.5873 45.8496 35.8719 45.4355 37.0139C45.0215 38.1559 44.4082 39.1123 43.6084 39.9117C42.8096 40.7111 41.8389 41.3248 40.7109 41.7388C39.5693 42.1528 38.2842 42.3669 36.8428 42.3669C35.4004 42.3669 34.1162 42.1528 32.9736 41.7388C31.832 41.3248 30.876 40.7111 30.0762 39.9117C29.2773 39.1123 28.6631 38.1416 28.249 37.0139C27.835 35.8719 27.6211 34.5873 27.6211 33.1455C27.6211 31.7038 27.835 30.4191 28.249 29.2772C28.6631 28.1352 29.2773 27.1788 30.0762 26.3651C30.876 25.5515 31.8467 24.952 32.9736 24.538C34.1162 24.124 35.4004 23.9099 36.8428 23.9099ZM36.8428 41.6531C37.2422 41.6531 37.6279 41.5247 38.0273 41.2678C38.4268 41.0108 38.7695 40.5683 39.084 39.926C39.3975 39.2836 39.6543 38.4128 39.8545 37.3137C40.0547 36.2145 40.1543 34.8157 40.1543 33.117C40.1543 31.4183 40.0547 30.0194 39.8545 28.9203C39.6543 27.8211 39.3975 26.9504 39.084 26.308C38.7695 25.6657 38.4131 25.2231 38.0273 24.9662C37.6416 24.7093 37.2422 24.5808 36.8428 24.5808C36.4424 24.5808 36.0576 24.7093 35.6572 24.9662C35.2578 25.2231 34.915 25.6657 34.6016 26.308C34.2871 26.9504 34.0303 27.8211 33.8301 28.9203C33.6309 30.0194 33.5303 31.4183 33.5303 33.117C33.5303 34.8157 33.6309 36.2145 33.8301 37.3137C34.0303 38.4128 34.2871 39.2836 34.6016 39.926C34.915 40.5683 35.2725 41.0108 35.6572 41.2678C36.0576 41.5247 36.4424 41.6531 36.8428 41.6531Z" fill="#292F36" fill-opacity="1.000000" fill-rule="nonzero"/>
	<path d="M72.1436 29.6483C72.1436 28.8203 72.0723 28.1066 71.9297 27.5499C71.7861 26.9932 71.6152 26.5222 71.3867 26.1653C71.1582 25.8084 70.916 25.5515 70.6592 25.3802C70.3877 25.2231 70.1309 25.1375 69.874 25.1375C69.4316 25.1375 69.0459 25.2803 68.7031 25.5657C68.3604 25.8513 68.0752 26.1796 67.8184 26.5222C67.5469 26.9361 67.29 27.4072 67.0898 27.9067L67.0898 40.7824L69.1885 41.3105L69.1885 41.8387L59.4531 41.8387L59.4531 41.3105L61.5371 40.7824L61.5371 29.6483C61.5371 28.8203 61.4658 28.1066 61.3232 27.5499C61.1807 26.9932 61.0088 26.5222 60.7812 26.1653C60.5527 25.8084 60.3096 25.5515 60.0527 25.3802C59.7812 25.2231 59.5244 25.1375 59.2676 25.1375C58.8252 25.1375 58.4395 25.2803 58.0977 25.5657C57.7549 25.8513 57.4688 26.1796 57.2119 26.5222C56.9268 26.9361 56.6836 27.4072 56.4844 27.9067L56.4844 40.7824L58.5684 41.3105L58.5684 41.8387L48.833 41.8387L48.833 41.3105L50.917 40.7824L50.917 25.4801L48.833 24.952L48.833 24.4238L51.959 24.4238C52.7725 24.4238 53.4434 24.5665 53.958 24.8378C54.4854 25.1089 54.8857 25.423 55.1992 25.7371C55.542 26.1367 55.7988 26.5649 55.9707 27.0217C56.2705 26.4365 56.6416 25.9226 57.084 25.4515C57.4834 25.0519 57.9688 24.695 58.54 24.3667C59.125 24.0384 59.8242 23.8813 60.667 23.8813C62.0508 23.8813 63.2646 24.1954 64.2637 24.8092C65.2773 25.423 66.0479 26.2224 66.5762 27.1931C66.876 26.5935 67.2471 26.0511 67.6895 25.5515C68.0898 25.1375 68.5742 24.7521 69.1455 24.4095C69.7305 24.0669 70.4307 23.8813 71.2725 23.8813C72.2285 23.8813 73.0859 24.0384 73.8848 24.3381C74.6699 24.6379 75.3555 25.0519 75.9258 25.58C76.4971 26.1082 76.9395 26.7077 77.2539 27.4072C77.5674 28.1066 77.7246 28.8489 77.7246 29.634L77.7246 40.7681L79.8086 41.2963L79.8086 41.8245L75.2842 41.8245C73.1992 41.8245 72.1572 40.7824 72.1572 38.6983L72.1572 29.6483L72.1436 29.6483Z" fill="#292F36" fill-opacity="1.000000" fill-rule="nonzero"/>
	<path d="M91.2852 42.3525C88.3164 42.3525 86.0039 41.5388 84.3623 39.8973C82.7207 38.2557 81.8926 36.0146 81.8926 33.1311C81.8926 31.6894 82.1064 30.4047 82.5205 29.2628C82.9346 28.1208 83.5195 27.1644 84.2617 26.3507C85.0049 25.5513 85.9033 24.9376 86.96 24.5236C88.0166 24.1096 89.1729 23.8955 90.4141 23.8955C91.7139 23.8955 92.8838 24.0811 93.9121 24.4522C94.9395 24.8234 95.8242 25.3229 96.5381 25.951C97.252 26.5791 97.8086 27.3214 98.1943 28.1636C98.5791 29.0058 98.7646 29.9051 98.7646 30.8615C98.7646 31.1898 98.751 31.4753 98.708 31.718C98.665 31.9606 98.6367 32.1747 98.5791 32.3603C98.5078 32.5887 98.4512 32.7885 98.4082 32.9456C97.3809 33.1597 96.3096 33.331 95.168 33.4737C94.1973 33.6165 93.0693 33.7307 91.7988 33.8448C90.5283 33.9448 89.1865 34.0019 87.8027 34.0019C87.8027 35.4436 87.9023 36.6426 88.1162 37.5991C88.3301 38.5555 88.6162 39.3263 88.9873 39.8973C89.3584 40.4683 89.8008 40.8679 90.3145 41.1106C90.8281 41.3533 91.3848 41.4818 91.9844 41.4818C92.6846 41.4818 93.3408 41.3533 93.9541 41.0963C94.5684 40.8394 95.0967 40.4968 95.5537 40.0685C96.0098 39.6403 96.3672 39.155 96.6387 38.6125C96.9092 38.0701 97.0381 37.5134 97.0381 36.9567L97.9082 36.9567C97.9082 37.6561 97.752 38.3271 97.4375 38.9694C97.123 39.626 96.6807 40.197 96.0957 40.6967C95.5107 41.1962 94.8252 41.5959 94.0117 41.8957C93.1836 42.1954 92.2705 42.3525 91.2852 42.3525ZM87.8027 33.1311C88.5869 33.1311 89.2871 33.1169 89.8867 33.074C90.4863 33.0312 91 33.0027 91.4141 32.9598C91.8994 32.917 92.3135 32.8599 92.6699 32.7885C92.7129 32.5602 92.7695 32.3032 92.8408 32.0177C92.8838 31.7608 92.9268 31.4753 92.9551 31.1613C92.9844 30.8472 93.0127 30.5189 93.0127 30.1763C93.0127 29.1343 92.9268 28.2635 92.7695 27.5498C92.6123 26.8361 92.3984 26.2651 92.1562 25.8226C91.9131 25.3801 91.6279 25.066 91.3281 24.8804C91.0137 24.6949 90.7002 24.595 90.4004 24.595C90.1006 24.595 89.7861 24.7092 89.4727 24.9233C89.1582 25.1517 88.8867 25.5656 88.6445 26.1794C88.4014 26.7932 88.2021 27.664 88.0303 28.7774C87.8877 29.8908 87.8027 31.3468 87.8027 33.1311Z" fill="#292F36" fill-opacity="1.000000" fill-rule="nonzero"/>
	<path d="M115.852 41.4818L115.852 27.3643L103.376 17.4863L103.376 41.4818L115.852 41.4818Z" fill="#292F36" fill-opacity="1.000000" fill-rule="nonzero"/>
	<path d="M131.283 41.4818L131.283 27.3643L119.007 17.4863L119.007 41.4818L131.283 41.4818Z" fill="#292F36" fill-opacity="1.000000" fill-rule="nonzero"/>
</svg>
